<?xml version="1.0" encoding="utf-8"?>
<!-- Generator: Adobe Illustrator 16.0.0, SVG Export Plug-In . SVG Version: 6.00 Build 0)  -->
<!DOCTYPE svg PUBLIC "-//W3C//DTD SVG 1.1//EN" "http://www.w3.org/Graphics/SVG/1.1/DTD/svg11.dtd">
<svg version="1.1" xmlns="http://www.w3.org/2000/svg" xmlns:xlink="http://www.w3.org/1999/xlink" x="0px" y="0px" width="150px"
	 height="120px" viewBox="0 0 150 120" enable-background="new 0 0 150 120" xml:space="preserve">
<g id="background">
	<g>
		<path fill="#333333" d="M8,120c-4.136,0-8-4.582-8-9.6V9.6C0,4.583,3.864,1,8,1h134c4.136,0,7,3.583,7,8.6v100.8
			c0,5.018-2.864,9.6-7,9.6H8z"/>
		<path d="M142,1c3.859,0,7,3.858,7,8.6v100.8c0,4.742-3.141,8.6-7,8.6H8c-3.86,0-7-3.857-7-8.6V9.6C1,4.858,4.14,1,8,1H142 M142,0
			H8C3.582,0,0,4.298,0,9.6v100.8c0,5.301,3.582,9.6,8,9.6h134c4.418,0,8-4.299,8-9.6V9.6C150,4.298,146.418,0,142,0L142,0z"/>
	</g>
</g>
<g id="head">
	<g>
		<linearGradient id="SVGID_1_" gradientUnits="userSpaceOnUse" x1="6.3247" y1="10" x2="163.0674" y2="10">
			<stop  offset="0.4166" style="stop-color:#C62828"/>
			<stop  offset="1" style="stop-color:#000000;stop-opacity:0"/>
		</linearGradient>
		<path fill="url(#SVGID_1_)" d="M1,19V9.099C1,4.283,4.784,1,9.151,1h132.436C145.954,1,149,4.283,149,9.099V19H1z"/>
	</g>
</g>
<g id="settings">
	<g id="XMLID_74_">
		<path id="XMLID_75_" fill="none" d="M141.683,10.432c0,2.229-1.806,4.035-4.035,4.035c-1.674,0-3.109-1.019-3.721-2.47
			c-0.069,0.057-0.138,0.113-0.205,0.171c0.666,1.506,2.173,2.556,3.926,2.556c2.37,0,4.293-1.922,4.293-4.292
			c0-0.959-0.315-1.845-0.847-2.56c-0.084,0.031-0.167,0.063-0.25,0.096C141.37,8.648,141.683,9.504,141.683,10.432z"/>
		<path id="XMLID_78_" fill="none" d="M137.647,6.14c-2.37,0-4.292,1.921-4.292,4.292c0,0.618,0.131,1.205,0.366,1.736
			c0.067-0.058,0.136-0.114,0.205-0.171c-0.203-0.481-0.314-1.011-0.314-1.565c0-2.229,1.806-4.036,4.035-4.036
			c1.301,0,2.458,0.616,3.196,1.572c0.083-0.032,0.166-0.064,0.25-0.096C140.312,6.82,139.06,6.14,137.647,6.14z"/>
		<path id="XMLID_79_" fill="#FFFFFF" d="M143.99,8.349l-0.682-1.186c-0.748,0.201-1.487,0.438-2.215,0.709
			c0.531,0.715,0.847,1.601,0.847,2.56c0,2.37-1.923,4.292-4.293,4.292c-1.753,0-3.26-1.05-3.926-2.556
			c-0.595,0.5-1.165,1.027-1.709,1.581l0.668,1.161c0.352-0.202,0.761-0.314,1.196-0.314c1.325,0,2.399,1.071,2.399,2.404h2.747
			c0-1.333,1.074-2.404,2.4-2.404c0.434,0,0.84,0.113,1.19,0.314l1.376-2.395c-0.721-0.414-1.206-1.193-1.206-2.084
			C142.784,9.54,143.27,8.763,143.99,8.349z"/>
		<path id="XMLID_80_" fill="#FFFFFF" d="M133.722,12.168c-0.235-0.531-0.366-1.118-0.366-1.736c0-2.371,1.922-4.292,4.292-4.292
			c1.412,0,2.664,0.681,3.446,1.732c0.728-0.271,1.467-0.508,2.215-0.709l-0.694-1.208c-0.351,0.201-0.757,0.381-1.19,0.381
			c-1.326,0-2.4-1.336-2.4-2.336h-2.747c0,1-1.074,2.336-2.399,2.336c-0.436,0-0.845-0.148-1.196-0.352l-1.376,2.378
			c0.724,0.413,1.212,1.185,1.212,2.077c0,0.894-0.488,1.668-1.212,2.081l0.708,1.23C132.557,13.197,133.127,12.668,133.722,12.168z
			"/>
		<path id="XMLID_81_" fill="#FFFFFF" d="M137.647,14.467c2.229,0,4.035-1.807,4.035-4.035c0-0.928-0.313-1.783-0.839-2.464
			c-0.219,0.084-0.436,0.171-0.651,0.261c0.512,0.591,0.821,1.36,0.821,2.203c0,1.858-1.507,3.365-3.366,3.365
			c-1.463,0-2.709-0.934-3.172-2.238c-0.185,0.144-0.368,0.289-0.549,0.438C134.538,13.448,135.974,14.467,137.647,14.467z"/>
		<path id="XMLID_82_" fill="#FFFFFF" d="M134.281,10.432c0-1.859,1.507-3.366,3.366-3.366c1.017,0,1.928,0.45,2.545,1.163
			c0.216-0.09,0.433-0.177,0.651-0.261c-0.738-0.956-1.896-1.572-3.196-1.572c-2.229,0-4.035,1.807-4.035,4.036
			c0,0.555,0.111,1.084,0.314,1.565c0.181-0.149,0.364-0.295,0.549-0.438C134.35,11.206,134.281,10.827,134.281,10.432z"/>
	</g>
</g>
<g id="textComponent">
	<rect x="4" y="6.167" fill="none" width="127" height="12.083"/>
	<text transform="matrix(1 0 0 1 4 16.0068)" fill="#FFFFFF" font-family="'TektonPro-Bold'" font-size="15">Component name</text>
</g>
<g id="component">
	<rect x="6.887" y="89.2" fill="none" width="116.966" height="34.954"/>
	
		<text id="unitComponent" transform="matrix(1 0 0 1 6.8872 114.1279)" fill="#FFFFFF" font-family="'TektonPro-Bold'" font-size="38">tr/min</text>
	<rect x="70.37" y="46.753" fill="none" width="76.796" height="17.667"/>
	
		<text id="speedComponent" transform="matrix(1 0 0 1 70.3701 55.9375)" fill="#FFFFFF" font-family="'TektonPro-Bold'" font-size="14">100,00000</text>
	<g id="fanRotor">
		<circle fill="#231F20" cx="36.193" cy="55.586" r="7.384"/>
		<g>
			<polygon fill="#231F20" points="39.479,46.886 32.906,46.886 33.411,28.474 38.976,28.474 			"/>
			<rect x="35.341" y="46.886" fill="#231F20" width="1.704" height="3.749"/>
		</g>
		<g>
			<polygon fill="#231F20" points="30.3,48.389 27.013,54.082 11.319,44.44 14.103,39.62 			"/>
			
				<rect x="29.429" y="50.297" transform="matrix(0.4998 -0.8661 0.8661 0.4998 -30.0424 52.3243)" fill="#231F20" width="1.705" height="3.752"/>
		</g>
		<g>
			<polygon fill="#231F20" points="27.013,57.092 30.299,62.783 14.102,71.553 11.318,66.732 			"/>
			
				<rect x="29.427" y="57.123" transform="matrix(-0.4998 -0.8661 0.8661 -0.4998 -5.6875 114.7135)" fill="#231F20" width="1.705" height="3.752"/>
		</g>
		<g>
			<polygon fill="#231F20" points="32.906,64.287 39.479,64.289 38.975,82.701 33.408,82.701 			"/>
			<rect x="35.34" y="60.537" fill="#231F20" width="1.704" height="3.752"/>
		</g>
		<g>
			<polygon fill="#231F20" points="42.084,62.783 45.371,57.092 61.064,66.734 58.281,71.555 			"/>
			
				<rect x="41.252" y="57.125" transform="matrix(-0.4998 0.8661 -0.8661 -0.4998 114.2503 52.0204)" fill="#231F20" width="1.705" height="3.75"/>
		</g>
		<g>
			<polygon fill="#231F20" points="45.371,54.082 42.085,48.391 58.283,39.62 61.066,44.441 			"/>
			
				<rect x="41.253" y="50.3" transform="matrix(0.5003 0.8659 -0.8659 0.5003 66.2153 -10.3848)" fill="#231F20" width="1.703" height="3.75"/>
		</g>
	</g>
	<g>
		<path fill="#231F20" d="M28.792,25.081c-12.518,0-22.759,10.241-22.759,22.759v15.495c0,12.518,10.241,22.76,22.759,22.76h14.8
			c12.518,0,22.759-10.242,22.759-22.76V47.839c0-12.518-10.241-22.759-22.759-22.759H28.792z M36.191,84.018
			c-15.701,0-28.43-12.729-28.43-28.43c0-15.702,12.729-28.429,28.43-28.429c15.702,0,28.429,12.727,28.429,28.429
			C64.621,71.289,51.893,84.018,36.191,84.018z"/>
	</g>
</g>
<g id="bindingIndicator">
	<circle fill="#FFFFFF" stroke="#FFFFFF" stroke-miterlimit="10" cx="136.751" cy="106.679" r="8"/>
	<circle id="ledColor" fill="#C62828" stroke="#FFFFFF" stroke-miterlimit="10" cx="136.751" cy="106.679" r="8"/>
	<linearGradient id="SVGID_2_" gradientUnits="userSpaceOnUse" x1="136.751" y1="100.2539" x2="136.751" y2="110.4725">
		<stop  offset="0" style="stop-color:#FFFFFF;stop-opacity:0.7"/>
		<stop  offset="0.7097" style="stop-color:#000000;stop-opacity:0"/>
	</linearGradient>
	<ellipse fill="url(#SVGID_2_)" cx="136.751" cy="104.144" rx="5.343" ry="4.69"/>
</g>
</svg>
