<?xml version="1.0" encoding="utf-8"?>
<!-- Generator: Adobe Illustrator 16.0.0, SVG Export Plug-In . SVG Version: 6.00 Build 0)  -->
<!DOCTYPE svg PUBLIC "-//W3C//DTD SVG 1.1//EN" "http://www.w3.org/Graphics/SVG/1.1/DTD/svg11.dtd">
<svg version="1.1" xmlns="http://www.w3.org/2000/svg" xmlns:xlink="http://www.w3.org/1999/xlink" x="0px" y="0px" width="150px"
	 height="120px" viewBox="0 0 150 120" enable-background="new 0 0 150 120" xml:space="preserve">
<g id="background">
	<g>
		<path fill="#333333" d="M8,120c-4.136,0-8-4.582-8-9.6V9.6C0,4.583,3.864,1,8,1h134c4.136,0,7,3.583,7,8.6v100.8
			c0,5.018-2.864,9.6-7,9.6H8z"/>
		<path d="M142,1c3.859,0,7,3.858,7,8.6v100.8c0,4.742-3.141,8.6-7,8.6H8c-3.86,0-7-3.857-7-8.6V9.6C1,4.858,4.14,1,8,1H142 M142,0
			H8C3.582,0,0,4.298,0,9.6v100.8c0,5.301,3.582,9.6,8,9.6h134c4.418,0,8-4.299,8-9.6V9.6C150,4.298,146.418,0,142,0L142,0z"/>
	</g>
</g>
<g id="head">
	<g>
		<linearGradient id="SVGID_1_" gradientUnits="userSpaceOnUse" x1="6.3242" y1="10" x2="163.0666" y2="10">
			<stop  offset="0.4166" style="stop-color:#C62828"/>
			<stop  offset="1" style="stop-color:#000000;stop-opacity:0"/>
		</linearGradient>
		<path fill="url(#SVGID_1_)" d="M1,19V9.099C1,4.283,4.784,1,9.151,1h132.436C145.954,1,149,4.283,149,9.099V19H1z"/>
	</g>
</g>
<g id="settings">
	<g id="XMLID_74_">
		<path id="XMLID_75_" fill="none" d="M141.683,10.432c0,2.229-1.806,4.035-4.035,4.035c-1.674,0-3.109-1.019-3.721-2.47
			c-0.069,0.057-0.138,0.113-0.205,0.171c0.666,1.506,2.173,2.556,3.926,2.556c2.37,0,4.293-1.922,4.293-4.292
			c0-0.959-0.315-1.845-0.847-2.56c-0.084,0.031-0.167,0.063-0.25,0.096C141.37,8.648,141.683,9.504,141.683,10.432z"/>
		<path id="XMLID_78_" fill="none" d="M137.647,6.14c-2.37,0-4.292,1.921-4.292,4.292c0,0.618,0.131,1.205,0.366,1.736
			c0.067-0.058,0.136-0.114,0.205-0.171c-0.203-0.481-0.314-1.011-0.314-1.565c0-2.229,1.806-4.036,4.035-4.036
			c1.301,0,2.458,0.616,3.196,1.572c0.083-0.032,0.166-0.064,0.25-0.096C140.312,6.82,139.06,6.14,137.647,6.14z"/>
		<path id="XMLID_79_" fill="#FFFFFF" d="M143.99,8.349l-0.682-1.186c-0.748,0.201-1.487,0.438-2.215,0.709
			c0.531,0.715,0.847,1.601,0.847,2.56c0,2.37-1.923,4.292-4.293,4.292c-1.753,0-3.26-1.05-3.926-2.556
			c-0.595,0.5-1.165,1.027-1.709,1.581l0.668,1.161c0.352-0.202,0.761-0.314,1.196-0.314c1.325,0,2.399,1.071,2.399,2.404h2.747
			c0-1.333,1.074-2.404,2.4-2.404c0.434,0,0.84,0.113,1.19,0.314l1.376-2.395c-0.721-0.414-1.206-1.193-1.206-2.084
			C142.784,9.54,143.27,8.763,143.99,8.349z"/>
		<path id="XMLID_80_" fill="#FFFFFF" d="M133.722,12.168c-0.235-0.531-0.366-1.118-0.366-1.736c0-2.371,1.922-4.292,4.292-4.292
			c1.412,0,2.664,0.681,3.446,1.732c0.728-0.271,1.467-0.508,2.215-0.709l-0.694-1.208c-0.351,0.201-0.757,0.381-1.19,0.381
			c-1.326,0-2.4-1.336-2.4-2.336h-2.747c0,1-1.074,2.336-2.399,2.336c-0.436,0-0.845-0.148-1.196-0.352l-1.376,2.378
			c0.724,0.413,1.212,1.185,1.212,2.077c0,0.894-0.488,1.668-1.212,2.081l0.708,1.23C132.557,13.197,133.127,12.668,133.722,12.168z
			"/>
		<path id="XMLID_81_" fill="#FFFFFF" d="M137.647,14.467c2.229,0,4.035-1.807,4.035-4.035c0-0.928-0.313-1.783-0.839-2.464
			c-0.219,0.084-0.436,0.171-0.651,0.261c0.512,0.591,0.821,1.36,0.821,2.203c0,1.858-1.507,3.365-3.366,3.365
			c-1.463,0-2.709-0.934-3.172-2.238c-0.185,0.144-0.368,0.289-0.549,0.438C134.538,13.448,135.974,14.467,137.647,14.467z"/>
		<path id="XMLID_82_" fill="#FFFFFF" d="M134.281,10.432c0-1.859,1.507-3.366,3.366-3.366c1.017,0,1.928,0.45,2.545,1.163
			c0.216-0.09,0.433-0.177,0.651-0.261c-0.738-0.956-1.896-1.572-3.196-1.572c-2.229,0-4.035,1.807-4.035,4.036
			c0,0.555,0.111,1.084,0.314,1.565c0.181-0.149,0.364-0.295,0.549-0.438C134.35,11.206,134.281,10.827,134.281,10.432z"/>
	</g>
</g>
<g id="textComponent">
	<rect x="4" y="6.167" fill="none" width="127" height="12.083"/>
	<text transform="matrix(1 0 0 1 4 16.0068)" fill="#FFFFFF" font-family="'TektonPro-Bold'" font-size="15">Component name</text>
</g>
<g id="component">
	<rect x="70.268" y="62.612" fill="none" width="76.898" height="34.954"/>
	
		<text id="unitComponent" transform="matrix(1 0 0 1 70.2681 87.54)" fill="#FFFFFF" font-family="'TektonPro-Bold'" font-size="38">%</text>
	<rect x="70.37" y="46.753" fill="none" width="76.796" height="17.667"/>
	
		<text id="speedComponent" transform="matrix(1 0 0 1 70.3701 55.9375)" fill="#FFFFFF" font-family="'TektonPro-Bold'" font-size="14">100,00000</text>
	<g>
		<g>
			<path fill="#999999" d="M40.424,78.213c-0.216-0.373-0.488-0.7-0.816-0.983c-0.315-0.273-0.727-0.585-1.232-0.935v-1.724
				c0-0.177-0.142-0.318-0.318-0.318h-5.162c-0.176,0-0.319,0.142-0.319,0.318v10.586c0,0.176,0.143,0.318,0.319,0.318h-1.382v0.45
				h7.924v-0.45h-1.381c0.176,0,0.318-0.143,0.318-0.318v-4.053l0.074,0.046l0.147,0.067c0.185,0.123,0.279,0.767,0.279,1.933v0.738
				v0.514c0.122,0.495,0.425,0.742,0.913,0.742c0.243,0,0.462-0.072,0.662-0.217c0.199-0.168,0.299-0.348,0.299-0.541v-1.3v-2.311
				v-1.373C40.75,78.982,40.641,78.586,40.424,78.213z M37.701,78.481h-4.449v-2.909h4.449V78.481z M40.352,81.854v1.337v0.499
				v0.416c0,0.146-0.058,0.272-0.17,0.384c-0.112,0.11-0.235,0.166-0.37,0.166c-0.235,0-0.4-0.183-0.489-0.548l0.018-0.398
				l0.017-0.651c0-1.202-0.125-1.875-0.375-2.02l-0.339-0.219l-0.266-0.189v-3.736l0.794,0.855c0.15,0.334,0.224,0.684,0.224,1.052
				v0.483v0.467c0,0.112,0.033,0.199,0.101,0.26c0.063,0.061,0.189,0.135,0.37,0.225c0.18,0.088,0.299,0.173,0.354,0.251
				c0.073,0.073,0.115,0.17,0.128,0.289c0.003,0.025,0.005,0.051,0.005,0.077V81.854z"/>
		</g>
		<g>
			<path fill="#999999" d="M36.132,95.528c-17.153,0-31.108-13.954-31.108-31.108c0-17.153,13.955-31.108,31.108-31.108
				S67.24,47.267,67.24,64.42C67.24,81.574,53.285,95.528,36.132,95.528z M36.132,36.69c-15.29,0-27.73,12.439-27.73,27.729
				c0,15.291,12.44,27.731,27.73,27.731c15.291,0,27.73-12.44,27.73-27.731C63.862,49.13,51.422,36.69,36.132,36.69z"/>
		</g>
		<g>
			<path fill="#BE1E2D" d="M12.063,65.825v-3.843c0-0.302,0.239-0.541,0.542-0.541h2.73c0.268,0,0.486,0.219,0.486,0.485
				s-0.218,0.478-0.486,0.478H13.14v1h1.878c0.268,0,0.485,0.218,0.485,0.485s-0.217,0.479-0.485,0.479H13.14v1.033h2.23
				c0.267,0,0.485,0.218,0.485,0.486c0,0.268-0.218,0.479-0.485,0.479h-2.766C12.303,66.367,12.063,66.127,12.063,65.825z"/>
		</g>
		<g>
			<path fill="#999999" d="M56.893,61.982c0-0.302,0.231-0.541,0.525-0.541h2.672c0.266,0,0.477,0.219,0.477,0.492
				c0,0.274-0.211,0.493-0.477,0.493h-2.147v1.048h1.841c0.266,0,0.477,0.218,0.477,0.492s-0.211,0.492-0.477,0.492h-1.841v1.407
				c0,0.303-0.232,0.542-0.525,0.542c-0.293,0-0.525-0.239-0.525-0.542V61.982z"/>
		</g>
		<g>
			<path fill="#999999" d="M36.132,38.995c-6.643,0-12.687,2.551-17.215,6.723c0.011,0.011,0.025,0.019,0.036,0.029l1.326,1.325
				c3.442-2.324,7.589-3.684,12.056-3.684c9.158,0,16.979,5.704,20.119,13.751h8.044C57.367,46.646,47.644,38.995,36.132,38.995z"/>
		</g>
		<g>
			<path fill="#BE1E2D" d="M17.43,47.205c-2.582,2.804-4.545,6.187-5.664,9.935h0.449c1.346-3.449,3.553-6.464,6.355-8.788
				l-1.111-1.111C17.448,47.23,17.44,47.216,17.43,47.205z"/>
		</g>
	</g>
</g>
<g id="bindingIndicator">
	<circle fill="#FFFFFF" stroke="#FFFFFF" stroke-miterlimit="10" cx="136.751" cy="106.679" r="8"/>
	<circle id="ledColor" fill="#C62828" stroke="#FFFFFF" stroke-miterlimit="10" cx="136.751" cy="106.679" r="8"/>
	<linearGradient id="SVGID_2_" gradientUnits="userSpaceOnUse" x1="136.751" y1="100.2539" x2="136.751" y2="110.4725">
		<stop  offset="0" style="stop-color:#FFFFFF;stop-opacity:0.7"/>
		<stop  offset="0.7097" style="stop-color:#000000;stop-opacity:0"/>
	</linearGradient>
	<ellipse fill="url(#SVGID_2_)" cx="136.751" cy="104.144" rx="5.343" ry="4.69"/>
</g>
<g id="trash">
	<rect x="117.498" y="4" fill="#FFFFFF" width="8.805" height="2.565"/>
	<path fill="#FFFFFF" d="M126.517,5.832h-9.233c-0.252,0-0.455-0.204-0.455-0.456V5.19c0-0.252,0.203-0.456,0.455-0.456h9.233
		c0.251,0,0.456,0.204,0.456,0.456v0.186C126.973,5.627,126.768,5.832,126.517,5.832"/>
	<rect x="117.221" y="3.417" fill="#FFFFFF" width="9.358" height="0.35"/>
	<path fill-rule="evenodd" clip-rule="evenodd" fill="#FFFFFF" d="M118.391,15.533c0,0,0.197,0.884,1.213,0.884h4.593
		c1.016,0,1.213-0.884,1.213-0.884l0.907-8.676h-8.832L118.391,15.533z"/>
	<path opacity="0" fill="#FFFF00" d="M123.164,5.396h-2.527c-0.139,0-0.252-0.114-0.252-0.253c0-0.139,0.113-0.252,0.252-0.252
		h2.527c0.139,0,0.252,0.114,0.252,0.252C123.416,5.282,123.303,5.396,123.164,5.396"/>
</g>
<g id="needle">
	<g>
		<path fill="#231F20" d="M34.396,61.557c0.583,0,1.056,0.473,1.056,1.056l0,0c0,0.583-0.473,1.056-1.056,1.056h-14.77
			c-0.582,0-1.056-0.473-1.056-1.056l0,0c0-0.583,0.473-1.056,1.056-1.056H34.396z"/>
	</g>
	<g>
		<path fill="#231F20" d="M35.452,58.251c2.408,0,4.361,1.952,4.361,4.361l0,0c0,2.408-1.953,4.36-4.361,4.36l0,0
			c-2.407,0-4.36-1.952-4.36-4.36l0,0C31.091,60.204,33.044,58.251,35.452,58.251L35.452,58.251z"/>
	</g>
</g>
</svg>
