<?xml version="1.0" encoding="utf-8"?>
<!-- Generator: Adobe Illustrator 16.0.0, SVG Export Plug-In . SVG Version: 6.00 Build 0)  -->
<!DOCTYPE svg PUBLIC "-//W3C//DTD SVG 1.1//EN" "http://www.w3.org/Graphics/SVG/1.1/DTD/svg11.dtd">
<svg version="1.1" id="Calque_1" xmlns="http://www.w3.org/2000/svg" xmlns:xlink="http://www.w3.org/1999/xlink" x="0px" y="0px"
	 width="100px" height="100px" viewBox="0 0 100 100" enable-background="new 0 0 100 100" xml:space="preserve">
<g id="thermometer">
	<path id="valueGauge" fill="#FF0000" d="M42.5,162c0,2.209,2.401,4,5.364,4h4.023c2.962,0,5.363-1.791,5.363-4V70
		c0-2.209-2.401-4-5.363-4h-4.023c-2.962,0-5.364,1.791-5.364,4V162z"/>
	<path id="mask" fill="#B3B3B3" d="M61.32,62.91c-1.334-0.977-1.813-1.766-1.797-3.393C59.609,51.615,59.563,44,59.563,36
		c-0.014,0-0.025,0-0.039,0c0-8,0.078-16.616-0.029-24.826c-0.064-4.868-4.176-8.909-9.03-9.081c-5.632-0.199-9.87,3.97-9.886,9.972
		c-0.041,15.579-0.04,31.133,0.02,46.71c0.007,1.898-0.405,3.146-2.071,4.373c-6.61,4.869-9.172,13.439-6.59,21.139
		c2.545,7.588,9.835,12.957,17.724,13.055c8.349,0.105,15.78-5.101,18.497-12.953C70.85,76.6,68.145,67.896,61.32,62.91z M55,69H44
		V10.834c0-3.111,2.636-5.185,5.5-5.185c2.863,0,5.5,2.075,5.5,5.185V69z"/>
	<path id="stroke" d="M62.426,35.342c0,7.452,0.066,14.907-0.047,22.357c-0.029,1.845,0.534,3.005,1.904,4.236
		c6.558,5.891,8.955,13.285,6.828,21.828c-2.104,8.45-7.635,13.815-16.08,15.979c-9.75,2.497-19.939-2.17-24.634-11.128
		c-4.632-8.837-2.736-19.872,4.777-26.39c1.693-1.468,2.202-2.914,2.191-5.025c-0.074-14.677-0.042-29.354-0.038-44.031
		c0.001-7.686,5.342-13.34,12.571-13.321c7.239,0.019,12.524,5.656,12.527,13.366C62.43,20.589,62.426,27.966,62.426,35.342z
		 M59.283,36.217c-0.014,0-0.026,0-0.039,0c0-8.13,0.076-16.261-0.03-24.391C59.15,7.005,55.08,3.101,50.273,2.93
		c-5.577-0.197-9.773,3.979-9.789,9.923c-0.041,15.425-0.04,30.851,0.019,46.276c0.007,1.881-0.401,3.129-2.051,4.344
		c-6.545,4.82-9.082,13.313-6.525,20.937c2.52,7.514,9.739,12.833,17.55,12.93c8.267,0.104,15.626-5.049,18.315-12.825
		c2.667-7.713-0.013-16.326-6.769-21.266c-1.32-0.966-1.797-1.939-1.778-3.553C59.329,51.871,59.283,44.044,59.283,36.217z"/>
	<circle id="baseGauge" fill="#FF0000" cx="49.878" cy="78.843" r="12.835"/>
</g>
</svg>
