<?xml version="1.0" encoding="utf-8"?>
<!-- Generator: Adobe Illustrator 16.0.0, SVG Export Plug-In . SVG Version: 6.00 Build 0)  -->
<!DOCTYPE svg PUBLIC "-//W3C//DTD SVG 1.1//EN" "http://www.w3.org/Graphics/SVG/1.1/DTD/svg11.dtd">
<svg version="1.1" xmlns="http://www.w3.org/2000/svg" xmlns:xlink="http://www.w3.org/1999/xlink" x="0px" y="0px" width="150px"
	 height="120px" viewBox="0 0 150 120" enable-background="new 0 0 150 120" xml:space="preserve">
<g id="background">
	<g>
		<path fill="#333333" d="M8,120c-4.136,0-8-4.582-8-9.6V9.6C0,4.583,3.864,1,8,1h134c4.136,0,7,3.583,7,8.6v100.8
			c0,5.018-2.864,9.6-7,9.6H8z"/>
		<path d="M142,1c3.859,0,7,3.858,7,8.6v100.8c0,4.742-3.141,8.6-7,8.6H8c-3.86,0-7-3.857-7-8.6V9.6C1,4.858,4.14,1,8,1H142 M142,0
			H8C3.582,0,0,4.298,0,9.6v100.8c0,5.301,3.582,9.6,8,9.6h134c4.418,0,8-4.299,8-9.6V9.6C150,4.298,146.418,0,142,0L142,0z"/>
	</g>
</g>
<g id="head">
	<g>
		<linearGradient id="SVGID_1_" gradientUnits="userSpaceOnUse" x1="6.3242" y1="10" x2="163.0666" y2="10">
			<stop  offset="0.4166" style="stop-color:#C62828"/>
			<stop  offset="1" style="stop-color:#000000;stop-opacity:0"/>
		</linearGradient>
		<path fill="url(#SVGID_1_)" d="M1,19V9.099C1,4.283,4.784,1,9.151,1h132.436C145.954,1,149,4.283,149,9.099V19H1z"/>
	</g>
</g>
<g id="settings">
	<g id="XMLID_74_">
		<path id="XMLID_75_" fill="none" d="M141.683,10.432c0,2.229-1.806,4.035-4.035,4.035c-1.674,0-3.109-1.019-3.721-2.47
			c-0.069,0.057-0.138,0.113-0.205,0.171c0.666,1.506,2.173,2.556,3.926,2.556c2.37,0,4.293-1.922,4.293-4.292
			c0-0.959-0.315-1.845-0.847-2.56c-0.084,0.031-0.167,0.063-0.25,0.096C141.37,8.648,141.683,9.504,141.683,10.432z"/>
		<path id="XMLID_78_" fill="none" d="M137.647,6.14c-2.37,0-4.292,1.921-4.292,4.292c0,0.618,0.131,1.205,0.366,1.736
			c0.067-0.058,0.136-0.114,0.205-0.171c-0.203-0.481-0.314-1.011-0.314-1.565c0-2.229,1.806-4.036,4.035-4.036
			c1.301,0,2.458,0.616,3.196,1.572c0.083-0.032,0.166-0.064,0.25-0.096C140.312,6.82,139.06,6.14,137.647,6.14z"/>
		<path id="XMLID_79_" fill="#FFFFFF" d="M143.99,8.349l-0.682-1.186c-0.748,0.201-1.487,0.438-2.215,0.709
			c0.531,0.715,0.847,1.601,0.847,2.56c0,2.37-1.923,4.292-4.293,4.292c-1.753,0-3.26-1.05-3.926-2.556
			c-0.595,0.5-1.165,1.027-1.709,1.581l0.668,1.161c0.352-0.202,0.761-0.314,1.196-0.314c1.325,0,2.399,1.071,2.399,2.404h2.747
			c0-1.333,1.074-2.404,2.4-2.404c0.434,0,0.84,0.113,1.19,0.314l1.376-2.395c-0.721-0.414-1.206-1.193-1.206-2.084
			C142.784,9.54,143.27,8.763,143.99,8.349z"/>
		<path id="XMLID_80_" fill="#FFFFFF" d="M133.722,12.168c-0.235-0.531-0.366-1.118-0.366-1.736c0-2.371,1.922-4.292,4.292-4.292
			c1.412,0,2.664,0.681,3.446,1.732c0.728-0.271,1.467-0.508,2.215-0.709l-0.694-1.208c-0.351,0.201-0.757,0.381-1.19,0.381
			c-1.326,0-2.4-1.336-2.4-2.336h-2.747c0,1-1.074,2.336-2.399,2.336c-0.436,0-0.845-0.148-1.196-0.352l-1.376,2.378
			c0.724,0.413,1.212,1.185,1.212,2.077c0,0.894-0.488,1.668-1.212,2.081l0.708,1.23C132.557,13.197,133.127,12.668,133.722,12.168z
			"/>
		<path id="XMLID_81_" fill="#FFFFFF" d="M137.647,14.467c2.229,0,4.035-1.807,4.035-4.035c0-0.928-0.313-1.783-0.839-2.464
			c-0.219,0.084-0.436,0.171-0.651,0.261c0.512,0.591,0.821,1.36,0.821,2.203c0,1.858-1.507,3.365-3.366,3.365
			c-1.463,0-2.709-0.934-3.172-2.238c-0.185,0.144-0.368,0.289-0.549,0.438C134.538,13.448,135.974,14.467,137.647,14.467z"/>
		<path id="XMLID_82_" fill="#FFFFFF" d="M134.281,10.432c0-1.859,1.507-3.366,3.366-3.366c1.017,0,1.928,0.45,2.545,1.163
			c0.216-0.09,0.433-0.177,0.651-0.261c-0.738-0.956-1.896-1.572-3.196-1.572c-2.229,0-4.035,1.807-4.035,4.036
			c0,0.555,0.111,1.084,0.314,1.565c0.181-0.149,0.364-0.295,0.549-0.438C134.35,11.206,134.281,10.827,134.281,10.432z"/>
	</g>
</g>
<g id="textComponent">
	<rect x="2" y="6.167" fill="none" width="127" height="12.083"/>
	<text transform="matrix(1 0 0 1 2 14.0391)" fill="#FFFFFF" font-family="'TektonPro-Bold'" font-size="12">Component name</text>
</g>
<g id="component">
	<rect id="value" x="23.345" y="24.027" fill="#FF0000" width="11.636" height="63.029"/>
	<path id="mask" fill="#B3B3B3" d="M40.14,81.636c-1.293-0.946-1.758-1.712-1.743-3.289c0.083-7.663,0.038-15.047,0.038-22.805
		c-0.013,0-0.024,0-0.038,0c0-7.757,0.076-16.112-0.028-24.073c-0.063-4.72-4.049-8.639-8.756-8.806
		c-5.461-0.193-9.571,3.85-9.586,9.669c-0.04,15.107-0.039,30.19,0.019,45.294c0.007,1.841-0.392,3.051-2.008,4.24
		c-6.41,4.722-8.894,13.032-6.39,20.498c2.468,7.357,9.536,12.563,17.186,12.658c8.095,0.103,15.302-4.945,17.936-12.56
		C49.38,94.91,46.757,86.472,40.14,81.636z M34.011,87.541H23.345V31.139c0-3.017,2.557-5.028,5.333-5.028s5.333,2.012,5.333,5.028
		V87.541z"/>
	<path id="stroke" d="M41.212,54.904c0,7.226,0.064,14.456-0.045,21.679c-0.028,1.789,0.518,2.914,1.847,4.108
		c6.359,5.712,8.684,12.882,6.621,21.166c-2.041,8.194-7.403,13.396-15.593,15.494c-9.454,2.421-19.334-2.104-23.888-10.791
		c-4.49-8.568-2.652-19.27,4.633-25.589c1.642-1.424,2.135-2.826,2.125-4.873c-0.072-14.232-0.041-28.464-0.037-42.696
		c0.001-7.453,5.18-12.936,12.19-12.917c7.019,0.019,12.144,5.484,12.146,12.96C41.216,40.598,41.212,47.751,41.212,54.904z
		 M38.165,55.752c-0.013,0-0.025,0-0.038,0c0-7.884,0.074-15.768-0.029-23.651c-0.062-4.675-4.009-8.46-8.669-8.626
		c-5.409-0.191-9.477,3.858-9.492,9.622c-0.04,14.957-0.04,29.916,0.018,44.873c0.006,1.823-0.389,3.034-1.989,4.212
		c-6.346,4.674-8.807,12.909-6.328,20.302c2.444,7.286,9.444,12.443,17.018,12.537c8.017,0.102,15.153-4.896,17.76-12.436
		c2.586-7.479-0.012-15.831-6.563-20.621c-1.28-0.937-1.742-1.881-1.724-3.445C38.209,70.932,38.165,63.342,38.165,55.752z"/>
	<circle id="baseGauge" fill="#FF0000" cx="29.045" cy="97.085" r="12.446"/>
	<rect x="52.334" y="80.941" fill="none" width="69.333" height="34.954"/>
	
		<text id="unitCOmponent" transform="matrix(1 0 0 1 52.334 112.4297)" fill="#FFFFFF" font-family="'TektonPro-Bold'" font-size="48">°C</text>
	<rect x="43.537" y="53.361" fill="none" width="102.463" height="17.667"/>
	<text transform="matrix(1 0 0 1 43.5371 62.5449)" fill="#FFFFFF" font-family="'TektonPro-Bold'" font-size="14">100,00000</text>
</g>
<g id="bindingIndicator">
	<circle fill="#FFFFFF" stroke="#FFFFFF" stroke-miterlimit="10" cx="136.751" cy="106.679" r="8"/>
	<circle id="ledColor" fill="#C62828" stroke="#FFFFFF" stroke-miterlimit="10" cx="136.751" cy="106.679" r="8"/>
	<linearGradient id="SVGID_2_" gradientUnits="userSpaceOnUse" x1="136.751" y1="100.2539" x2="136.751" y2="110.4725">
		<stop  offset="0" style="stop-color:#FFFFFF;stop-opacity:0.7"/>
		<stop  offset="0.7097" style="stop-color:#000000;stop-opacity:0"/>
	</linearGradient>
	<ellipse fill="url(#SVGID_2_)" cx="136.751" cy="104.144" rx="5.343" ry="4.69"/>
</g>
<g id="trash">
	<rect x="117.498" y="4" fill="#FFFFFF" width="8.805" height="2.565"/>
	<path fill="#FFFFFF" d="M126.517,5.832h-9.233c-0.252,0-0.455-0.204-0.455-0.456V5.19c0-0.252,0.203-0.456,0.455-0.456h9.233
		c0.251,0,0.456,0.204,0.456,0.456v0.186C126.973,5.627,126.768,5.832,126.517,5.832"/>
	<rect x="117.221" y="3.417" fill="#FFFFFF" width="9.358" height="0.35"/>
	<path fill-rule="evenodd" clip-rule="evenodd" fill="#FFFFFF" d="M118.391,15.533c0,0,0.197,0.884,1.213,0.884h4.593
		c1.016,0,1.213-0.884,1.213-0.884l0.907-8.676h-8.832L118.391,15.533z"/>
	<path opacity="0" fill="#FFFF00" d="M123.164,5.396h-2.527c-0.139,0-0.252-0.114-0.252-0.253c0-0.139,0.113-0.252,0.252-0.252
		h2.527c0.139,0,0.252,0.114,0.252,0.252C123.416,5.282,123.303,5.396,123.164,5.396"/>
</g>
</svg>
