<?xml version="1.0" encoding="utf-8"?>
<!-- Generator: Adobe Illustrator 16.0.0, SVG Export Plug-In . SVG Version: 6.00 Build 0)  -->
<svg version="1.2" baseProfile="tiny" id="Calque_1"
	 xmlns="http://www.w3.org/2000/svg" xmlns:xlink="http://www.w3.org/1999/xlink" x="0px" y="0px" width="960px" height="560px"
	 viewBox="0 0 960 560" xml:space="preserve">
<g>
	
		
	<g>
		<g>
			<polygon fill="#333333" points="63.875,535.354 120.241,591.711 85.67,626.29 142.443,683.089 141.594,683.938 83.952,626.29 
				118.541,591.711 63.875,537.054 39.973,560.975 19.063,540.064 19.914,539.215 39.973,559.258 			"/>
		</g>
		<g>
			<path fill="#333333" d="M139.752,681.229c1.239-1.256,3.258-1.273,4.568,0c1.238,1.259,1.203,3.276-0.036,4.533
				c-1.274,1.258-3.294,1.275-4.533,0.035C138.479,684.506,138.512,682.488,139.752,681.229z"/>
		</g>
		<g>
			<path fill="#333333" d="M82.801,624.29c1.258-1.24,3.312-1.24,4.568,0c1.24,1.256,1.24,3.31,0,4.566
				c-1.256,1.24-3.31,1.24-4.568,0C81.563,627.6,81.563,625.546,82.801,624.29z"/>
		</g>
		<g>
			<path fill="#333333" d="M17.912,538.063c1.026-1.027,2.673-1.027,3.701,0c1.028,1.028,1.028,2.673,0,3.701
				c-1.028,1.026-2.675,1.026-3.701,0C16.885,540.736,16.885,539.092,17.912,538.063z"/>
		</g>
		<g>
			<path fill="#333333" d="M117.372,589.711c1.274-1.258,3.33-1.258,4.568,0c1.238,1.256,1.238,3.311,0,4.568
				c-1.239,1.238-3.294,1.238-4.568,0C116.133,593.021,116.133,590.967,117.372,589.711z"/>
		</g>
		<g>
			<path fill="#333333" d="M61.325,533.654c1.258-1.256,3.294-1.274,4.55,0c1.256,1.24,1.256,3.294,0,4.551
				c-1.24,1.258-3.292,1.258-4.55,0C60.051,536.948,60.067,534.895,61.325,533.654z"/>
		</g>
		<g>
			<path fill="#333333" d="M38.54,558.143c0.796-0.798,2.072-0.798,2.85,0c0.778,0.777,0.798,2.035-0.018,2.832
				c-0.76,0.779-2.036,0.779-2.816,0C37.778,560.178,37.76,558.92,38.54,558.143z"/>
		</g>
	</g>
	<g>
		<polygon fill="#333333" points="-40.003,400.156 16.354,456.53 -18.226,491.107 38.556,547.891 37.706,548.74 -19.942,491.092 
			14.635,456.511 -40.003,401.873 -63.923,425.793 -84.833,404.865 -83.984,404.014 -63.923,424.075 		"/>
	</g>
	<g>
		<path fill="#333333" d="M36.077,546.049c1.256-1.258,3.294-1.274,4.568,0c1.24,1.257,1.24,3.293,0,4.551
			c-1.256,1.256-3.312,1.256-4.568,0C34.821,549.342,34.837,547.306,36.077,546.049z"/>
	</g>
	<g>
		<path fill="#333333" d="M-21.077,489.107c1.24-1.256,3.294-1.256,4.552,0c1.256,1.258,1.256,3.312,0,4.551
			c-1.258,1.258-3.312,1.258-4.552,0C-22.333,492.419-22.333,490.365-21.077,489.107z"/>
	</g>
	<g>
		<path fill="#333333" d="M-85.984,402.883c1.028-1.027,2.691-1.027,3.701,0c1.026,1.025,1.026,2.655,0,3.682
			c-1.026,1.027-2.673,1.027-3.701,0C-86.993,405.574-87.012,403.908-85.984,402.883z"/>
	</g>
	<g>
		<path fill="#333333" d="M13.504,454.528c1.238-1.257,3.292-1.257,4.548,0c1.258,1.258,1.258,3.312,0,4.55
			c-1.256,1.258-3.31,1.258-4.548,0C12.246,457.84,12.246,455.786,13.504,454.528z"/>
	</g>
	<g>
		<path fill="#333333" d="M-42.571,398.455c1.256-1.24,3.292-1.256,4.568,0c1.24,1.257,1.24,3.313,0,4.568
			c-1.256,1.24-3.312,1.24-4.568,0C-43.827,401.748-43.811,399.712-42.571,398.455z"/>
	</g>
	<g>
		<path fill="#333333" d="M-65.322,422.924c0.78-0.777,2.036-0.76,2.833,0.035c0.762,0.78,0.796,2.055,0.016,2.834
			c-0.796,0.778-2.07,0.761-2.85,0C-66.12,424.996-66.12,423.739-65.322,422.924z"/>
	</g>
	<g>
		<g>
			<polygon fill="#333333" points="67.576,457.662 123.924,514.02 89.335,548.598 146.162,605.38 145.277,606.247 87.635,548.598 
				122.224,514.02 67.576,459.362 43.656,483.283 22.746,462.355 23.613,461.488 43.691,481.547 			"/>
		</g>
		<g>
			<path fill="#333333" d="M143.436,603.521c1.274-1.256,3.292-1.24,4.568,0.019c1.238,1.258,1.238,3.294,0,4.55
				c-1.276,1.257-3.294,1.24-4.568,0C142.195,606.833,142.16,604.797,143.436,603.521z"/>
		</g>
		<g>
			<path fill="#333333" d="M86.503,546.615c1.256-1.257,3.292-1.274,4.549,0c1.258,1.239,1.258,3.294,0,4.55
				c-1.238,1.258-3.292,1.258-4.549,0C85.228,549.909,85.246,547.854,86.503,546.615z"/>
		</g>
		<g>
			<path fill="#333333" d="M21.594,460.372c1.026-1.027,2.691-1.027,3.717,0c1.01,1.009,1.01,2.673-0.016,3.7
				c-1.01,0.991-2.655,0.991-3.665-0.018C20.604,463.027,20.604,461.381,21.594,460.372z"/>
		</g>
		<g>
			<path fill="#333333" d="M121.091,512.036c1.274-1.292,3.294-1.274,4.532,0c1.274,1.239,1.274,3.275,0,4.552
				c-1.238,1.256-3.294,1.256-4.532,0C119.816,515.33,119.816,513.275,121.091,512.036z"/>
		</g>
		<g>
			<path fill="#333333" d="M65.008,455.945c1.274-1.274,3.294-1.24,4.55,0c1.256,1.256,1.276,3.292,0,4.568
				c-1.256,1.256-3.292,1.256-4.55,0C63.75,459.257,63.75,457.201,65.008,455.945z"/>
		</g>
		<g>
			<path fill="#333333" d="M42.239,480.415c0.778-0.78,2.089-0.78,2.85,0c0.798,0.796,0.78,2.088,0.02,2.851
				c-0.815,0.813-2.072,0.797-2.869,0C41.46,482.503,41.441,481.211,42.239,480.415z"/>
		</g>
	</g>
	<g>
		<g>
			<polygon fill="#333333" points="263.975,562.675 264.825,563.524 244.746,583.603 268.649,607.504 212.308,663.861 
				177.748,629.283 120.948,686.063 120.099,685.215 177.748,627.564 212.308,662.144 266.948,607.523 243.047,583.603 			"/>
		</g>
		<g>
			<path fill="#333333" d="M122.79,683.355c1.276,1.258,1.276,3.294,0,4.567c-1.238,1.239-3.292,1.239-4.568,0
				c-1.239-1.258-1.239-3.31,0-4.567C119.497,682.098,121.551,682.115,122.79,683.355z"/>
		</g>
		<g>
			<path fill="#333333" d="M179.731,626.432c1.239,1.258,1.239,3.294,0,4.567c-1.273,1.259-3.329,1.24-4.567,0
				c-1.239-1.256-1.274-3.292,0-4.567C176.437,625.175,178.458,625.175,179.731,626.432z"/>
		</g>
		<g>
			<path fill="#333333" d="M265.956,561.542c1.028,1.025,1.028,2.69,0,3.7c-1.025,1.026-2.69,1.026-3.717,0
				c-0.99-0.992-1.026-2.675,0-3.7C263.265,560.514,264.93,560.55,265.956,561.542z"/>
		</g>
		<g>
			<path fill="#333333" d="M214.292,661.011c1.274,1.258,1.274,3.294,0,4.567c-1.238,1.257-3.294,1.24-4.532,0
				c-1.274-1.256-1.274-3.292,0-4.567C210.999,659.754,213.054,659.754,214.292,661.011z"/>
		</g>
		<g>
			<path fill="#333333" d="M270.383,604.938c1.24,1.256,1.24,3.311,0,4.551c-1.274,1.273-3.293,1.256-4.566,0
				c-1.24-1.24-1.276-3.276,0-4.551C267.055,603.68,269.109,603.68,270.383,604.938z"/>
		</g>
		<g>
			<path fill="#333333" d="M245.879,582.204c0.779,0.777,0.815,2.054,0.035,2.832c-0.815,0.797-2.09,0.779-2.867,0
				c-0.78-0.814-0.78-2.055,0-2.851C243.825,581.406,245.099,581.406,245.879,582.204z"/>
		</g>
	</g>
	<g>
		<g>
			<polygon fill="#333333" points="82.961,381.671 83.813,382.521 63.734,402.6 87.635,426.502 31.296,482.84 -3.281,448.279 
				-60.063,505.061 -60.913,504.211 -3.281,446.561 31.296,481.14 85.936,426.502 62.034,402.6 			"/>
		</g>
		<g>
			<path fill="#333333" d="M-58.222,502.352c1.258,1.258,1.239,3.294,0,4.551c-1.258,1.239-3.294,1.256-4.55,0
				c-1.256-1.257-1.256-3.293,0-4.551S-59.48,501.094-58.222,502.352z"/>
		</g>
		<g>
			<path fill="#333333" d="M-1.3,445.445c1.258,1.24,1.258,3.259-0.016,4.533c-1.24,1.258-3.294,1.275-4.533,0.018
				c-1.276-1.257-1.258-3.311,0-4.551C-4.574,444.172-2.556,444.172-1.3,445.445z"/>
		</g>
		<g>
			<path fill="#333333" d="M84.944,380.538c1.01,1.026,1.01,2.673,0,3.699c-1.026,1.028-2.691,1.028-3.719,0
				c-1.026-1.026-1.026-2.673,0-3.699C82.253,379.51,83.918,379.51,84.944,380.538z"/>
		</g>
		<g>
			<path fill="#333333" d="M33.281,480.024c1.256,1.24,1.274,3.276,0,4.55c-1.258,1.259-3.312,1.259-4.552,0
				c-1.274-1.273-1.256-3.31,0-4.55C30.004,478.732,32.023,478.75,33.281,480.024z"/>
		</g>
		<g>
			<path fill="#333333" d="M89.371,423.916c1.256,1.274,1.256,3.328,0,4.568c-1.275,1.273-3.312,1.256-4.568,0
				c-1.256-1.275-1.276-3.276,0-4.568C86.06,422.676,88.096,422.676,89.371,423.916z"/>
		</g>
		<g>
			<path fill="#333333" d="M64.85,401.164c0.813,0.798,0.813,2.055,0.036,2.834c-0.815,0.796-2.056,0.796-2.852,0
				c-0.78-0.779-0.796-2.036,0-2.852C62.813,400.367,64.07,400.402,64.85,401.164z"/>
		</g>
	</g>
	<g>
		<g>
			<polygon fill="#333333" points="188.832,411.557 189.681,412.408 169.603,432.467 193.542,456.37 137.167,512.744 
				102.58,478.148 45.815,534.912 44.965,534.063 102.58,476.448 137.167,511.045 191.84,456.37 167.904,432.467 			"/>
		</g>
		<g>
			<path fill="#333333" d="M47.656,532.203c1.274,1.274,1.258,3.311,0,4.566c-1.274,1.276-3.292,1.259-4.548,0
				c-1.258-1.273-1.258-3.274,0.016-4.548C44.364,530.963,46.4,530.945,47.656,532.203z"/>
		</g>
		<g>
			<path fill="#333333" d="M103.943,474.66c1.256,1.256,1.256,3.311,0,4.551c-1.258,1.256-3.31,1.256-4.55,0
				c-1.256-1.24-1.256-3.295,0-4.551C100.633,473.402,102.685,473.402,103.943,474.66z"/>
		</g>
		<g>
			<path fill="#333333" d="M190.815,410.408c1.025,1.025,1.025,2.671,0,3.699c-1.026,1.027-2.655,1.027-3.682,0
				c-1.028-1.028-1.028-2.674,0-3.699C188.16,409.38,189.789,409.38,190.815,410.408z"/>
		</g>
		<g>
			<path fill="#333333" d="M139.185,509.895c1.24,1.238,1.24,3.292,0,4.55c-1.274,1.257-3.328,1.257-4.568,0
				c-1.239-1.258-1.239-3.312,0-4.55C135.857,508.637,137.911,508.637,139.185,509.895z"/>
		</g>
		<g>
			<path fill="#333333" d="M195.242,453.82c1.238,1.258,1.238,3.312,0,4.568c-1.274,1.24-3.33,1.24-4.568,0
				c-1.238-1.257-1.238-3.311,0-4.568C191.912,452.582,193.967,452.582,195.242,453.82z"/>
		</g>
		<g>
			<path fill="#333333" d="M170.773,431.051c0.778,0.779,0.743,2.071-0.035,2.852c-0.78,0.779-2.056,0.779-2.834,0
				c-0.778-0.78-0.778-2.072,0-2.852C168.682,430.272,169.958,430.254,170.773,431.051z"/>
		</g>
	</g>
	<g>
		<g>
			<polygon fill="#333333" points="47.799,306.679 48.648,307.528 28.588,327.598 52.49,351.5 -3.866,407.875 -38.463,373.279 
				-95.227,430.042 -96.077,429.193 -38.427,371.543 -3.848,406.121 50.792,351.5 26.887,327.598 			"/>
		</g>
		<g>
			<path fill="#333333" d="M-93.368,427.334c1.257,1.256,1.257,3.31,0,4.55c-1.257,1.258-3.293,1.274-4.55,0
				c-1.257-1.24-1.239-3.294,0-4.532C-96.661,426.094-94.625,426.077-93.368,427.334z"/>
		</g>
		<g>
			<path fill="#333333" d="M-36.461,370.41c1.274,1.275,1.255,3.311,0,4.567c-1.242,1.24-3.294,1.274-4.552,0
				c-1.256-1.257-1.239-3.292,0.018-4.55C-39.755,369.171-37.703,369.171-36.461,370.41z"/>
		</g>
		<g>
			<path fill="#333333" d="M49.799,305.527c1.008,1.019,1.028,2.684,0,3.709c-1.028,1.028-2.691,1.01-3.719,0
				c-1.008-1.018-1.026-2.681,0-3.709C47.108,304.502,48.771,304.519,49.799,305.527z"/>
		</g>
		<g>
			<path fill="#333333" d="M-1.883,405.006c1.274,1.258,1.258,3.295,0,4.551c-1.239,1.256-3.294,1.256-4.55,0
				s-1.24-3.293,0.018-4.551C-5.177,403.768-3.122,403.75-1.883,405.006z"/>
		</g>
		<g>
			<path fill="#333333" d="M54.189,348.934c1.258,1.256,1.258,3.311,0,4.551c-1.256,1.256-3.292,1.273-4.568,0
				c-1.238-1.24-1.238-3.295,0.02-4.533C50.897,347.693,52.933,347.676,54.189,348.934z"/>
		</g>
		<g>
			<path fill="#333333" d="M29.721,326.182c0.78,0.779,0.798,2.055,0,2.85c-0.778,0.762-2.072,0.762-2.85,0
				c-0.797-0.795-0.78-2.07,0-2.85C27.667,325.367,28.943,325.385,29.721,326.182z"/>
		</g>
	</g>
	<g>
		<g>
			<polygon fill="#333333" points="159.653,292.143 160.502,293.002 140.425,313.08 164.328,336.981 107.998,393.322 73.418,358.76 
				16.636,415.541 15.77,414.69 73.418,357.061 107.998,391.621 162.627,336.981 138.725,313.08 			"/>
		</g>
		<g>
			<path fill="#333333" d="M18.477,412.833c1.258,1.257,1.258,3.31,0,4.567c-1.256,1.239-3.292,1.239-4.549,0
				c-1.258-1.258-1.258-3.311,0-4.567C15.185,411.593,17.221,411.593,18.477,412.833z"/>
		</g>
		<g>
			<path fill="#333333" d="M75.402,355.927c1.239,1.239,1.274,3.275,0,4.55c-1.258,1.258-3.312,1.258-4.568,0
				c-1.24-1.256-1.24-3.311,0-4.55C72.108,354.652,74.145,354.67,75.402,355.927z"/>
		</g>
		<g>
			<path fill="#333333" d="M161.637,291.019c1.026,1.026,1.026,2.683,0,3.71c-1.027,1.025-2.691,1.025-3.719,0
				c-0.992-1.018-1.027-2.684,0-3.71C158.946,289.992,160.609,290.01,161.637,291.019z"/>
		</g>
		<g>
			<path fill="#333333" d="M109.98,390.488c1.232,1.273,1.266,3.294,0,4.568c-1.258,1.256-3.31,1.256-4.568,0
				c-1.238-1.24-1.238-3.295,0-4.568C106.686,389.214,108.722,389.25,109.98,390.488z"/>
		</g>
		<g>
			<path fill="#333333" d="M166.062,334.414c1.239,1.258,1.239,3.312,0,4.551c-1.273,1.275-3.294,1.258-4.568,0
				c-1.238-1.239-1.274-3.275,0-4.551C162.768,333.157,164.824,333.157,166.062,334.414z"/>
		</g>
		<g>
			<path fill="#333333" d="M141.559,311.664c0.778,0.787,0.813,2.053,0.036,2.832c-0.815,0.797-2.09,0.779-2.87,0
				c-0.778-0.797-0.778-2.045,0.036-2.842C139.504,310.876,140.779,310.876,141.559,311.664z"/>
		</g>
	</g>
	<g>
		<g>
			<g>
				<polygon fill="#333333" points="154.624,418.021 154.979,418.392 145.948,427.458 156.75,438.258 131.289,463.736 
					115.673,448.12 90.026,473.758 89.619,473.351 115.673,447.322 131.289,462.938 155.97,438.258 145.17,427.458 				"/>
			</g>
		</g>
		<g>
			<g>
				<path fill="#333333" d="M90.842,472.535c0.583,0.567,0.583,1.471,0,2.054c-0.567,0.567-1.471,0.567-2.056,0
					c-0.566-0.583-0.566-1.486,0-2.054C89.371,471.951,90.274,471.951,90.842,472.535z"/>
			</g>
		</g>
		<g>
			<g>
				<path fill="#333333" d="M116.558,446.826c0.567,0.568,0.567,1.453,0,2.037s-1.488,0.584-2.054,0s-0.566-1.469,0-2.037
					C115.07,446.225,115.991,446.225,116.558,446.826z"/>
			</g>
		</g>
		<g>
			<g>
				<path fill="#333333" d="M155.509,417.506c0.46,0.461,0.46,1.205,0,1.666c-0.425,0.46-1.203,0.46-1.663,0
					c-0.46-0.479-0.46-1.24,0-1.684C154.307,417.046,155.049,417.046,155.509,417.506z"/>
			</g>
		</g>
		<g>
			<g>
				<path fill="#333333" d="M132.174,462.443c0.566,0.566,0.602,1.469,0,2.053c-0.565,0.567-1.486,0.567-2.054,0
					c-0.567-0.584-0.567-1.486,0-2.053C130.723,461.859,131.608,461.859,132.174,462.443z"/>
			</g>
		</g>
		<g>
			<g>
				<path fill="#333333" d="M157.529,437.089c0.565,0.565,0.53,1.522,0,2.054c-0.567,0.584-1.524,0.602-2.09,0.036
					c-0.565-0.567-0.532-1.505,0.034-2.09C156.005,436.557,156.962,436.523,157.529,437.089z"/>
			</g>
		</g>
		<g>
			<g>
				<path fill="#333333" d="M146.444,426.819c0.355,0.354,0.355,0.921,0,1.274c-0.354,0.355-0.921,0.355-1.274,0
					c-0.353-0.354-0.353-0.92,0-1.274C145.523,426.466,146.091,426.466,146.444,426.819z"/>
			</g>
		</g>
	</g>
	<g>
		<g>
			<g>
				<polygon fill="#333333" points="56.209,360.92 55.836,360.565 64.901,351.5 54.102,340.682 79.544,315.24 95.16,330.855 
					120.807,305.219 121.198,305.617 95.18,331.635 79.544,316.019 54.864,340.7 65.663,351.5 				"/>
			</g>
		</g>
		<g>
			<g>
				<path fill="#333333" d="M119.958,306.44c-0.565-0.575-0.532-1.496,0-2.054c0.602-0.576,1.522-0.594,2.09-0.018
					c0.565,0.575,0.532,1.496-0.036,2.071C121.48,306.998,120.559,307.016,119.958,306.44z"/>
			</g>
		</g>
		<g>
			<g>
				<path fill="#333333" d="M94.275,332.131c-0.583-0.566-0.583-1.488,0-2.054c0.55-0.55,1.471-0.567,2.054,0
					c0.585,0.565,0.549,1.505,0,2.054C95.746,332.697,94.858,332.697,94.275,332.131z"/>
			</g>
		</g>
		<g>
			<g>
				<path fill="#333333" d="M55.305,361.469c-0.46-0.46-0.46-1.222,0-1.682c0.46-0.461,1.206-0.461,1.683,0
					c0.46,0.46,0.46,1.222,0,1.664C56.511,361.929,55.765,361.929,55.305,361.469z"/>
			</g>
		</g>
		<g>
			<g>
				<path fill="#333333" d="M78.659,316.514c-0.565-0.565-0.585-1.486,0-2.054c0.55-0.548,1.487-0.565,2.054,0
					c0.567,0.567,0.548,1.488,0,2.054C80.129,317.081,79.225,317.081,78.659,316.514z"/>
			</g>
		</g>
		<g>
			<g>
				<path fill="#333333" d="M53.304,341.852c-0.548-0.566-0.566-1.471,0-2.055c0.585-0.584,1.506-0.566,2.056,0
					c0.583,0.584,0.583,1.47,0,2.055C54.792,342.435,53.889,342.435,53.304,341.852z"/>
			</g>
		</g>
		<g>
			<g>
				<path fill="#333333" d="M64.354,352.139c-0.354-0.355-0.318-0.921,0.018-1.275c0.354-0.354,0.938-0.372,1.292-0.035
					c0.354,0.371,0.337,0.955,0,1.311C65.31,352.492,64.725,352.492,64.354,352.139z"/>
			</g>
		</g>
	</g>
	<g>
		<g>
			<g>
				<polygon fill="#333333" points="142.231,653.662 141.63,653.061 155.934,638.736 138.903,621.687 179.092,581.495 
					203.74,606.158 244.25,565.647 244.888,566.269 203.775,607.398 179.092,582.698 140.106,621.687 157.14,638.736 				"/>
			</g>
		</g>
		<g>
			<g>
				<path fill="#333333" d="M242.94,567.578c-0.885-0.867-0.921-2.355,0-3.257c0.885-0.904,2.373-0.868,3.259,0
					c0.885,0.901,0.885,2.354,0,3.257C245.278,568.481,243.825,568.481,242.94,567.578z"/>
			</g>
		</g>
		<g>
			<g>
				<path fill="#333333" d="M202.323,608.194c-0.886-0.885-0.921-2.354,0-3.257c0.885-0.903,2.373-0.867,3.258,0
					c0.886,0.903,0.886,2.355,0,3.257C204.66,609.099,203.208,609.099,202.323,608.194z"/>
			</g>
		</g>
		<g>
			<g>
				<path fill="#333333" d="M140.814,654.46c-0.708-0.727-0.708-1.878,0-2.604c0.744-0.725,1.911-0.743,2.657-0.017
					c0.707,0.725,0.707,1.911,0,2.655C142.726,655.222,141.559,655.186,140.814,654.46z"/>
			</g>
		</g>
		<g>
			<g>
				<path fill="#333333" d="M177.642,583.531c-0.886-0.902-0.886-2.355,0-3.258c0.92-0.903,2.371-0.903,3.258,0
					c0.919,0.902,0.919,2.355,0,3.258C180.013,584.435,178.562,584.435,177.642,583.531z"/>
			</g>
		</g>
		<g>
			<g>
				<path fill="#333333" d="M137.663,623.51c-0.885-0.902-0.885-2.354,0-3.24c0.92-0.903,2.372-0.903,3.256,0
					c0.921,0.887,0.921,2.338,0,3.24C140.035,624.413,138.583,624.413,137.663,623.51z"/>
			</g>
		</g>
		<g>
			<g>
				<path fill="#333333" d="M155.12,639.747c-0.532-0.55-0.532-1.453,0.036-2.001c0.532-0.549,1.453-0.567,2.019-0.02
					c0.565,0.567,0.565,1.488,0,2.038C156.608,640.33,155.723,640.33,155.12,639.747z"/>
			</g>
		</g>
	</g>
	<g>
		<g>
			<g>
				<polygon fill="#333333" points="141.876,458.247 142.479,457.646 156.785,471.951 173.853,454.883 214.08,495.092 
					189.364,519.773 229.875,560.266 229.271,560.869 188.16,519.755 212.804,495.092 173.853,456.122 156.785,473.172 				"/>
			</g>
		</g>
		<g>
			<g>
				<path fill="#333333" d="M228.068,559.47c0.886-0.885,2.336-0.903,3.257,0c0.886,0.903,0.852,2.372,0,3.257
					c-0.921,0.904-2.371,0.904-3.257,0C227.148,561.825,227.148,560.373,228.068,559.47z"/>
			</g>
		</g>
		<g>
			<g>
				<path fill="#333333" d="M187.344,518.357c0.92-0.904,2.373-0.904,3.258,0c0.885,0.901,0.885,2.354,0,3.257
					c-0.885,0.886-2.338,0.886-3.258,0C186.458,520.712,186.458,519.259,187.344,518.357z"/>
			</g>
		</g>
		<g>
			<g>
				<path fill="#333333" d="M141.063,456.83c0.708-0.725,1.913-0.744,2.62-0.018c0.744,0.727,0.71,1.912,0,2.639
					c-0.743,0.727-1.912,0.727-2.62,0C140.32,458.725,140.32,457.557,141.063,456.83z"/>
			</g>
		</g>
		<g>
			<g>
				<path fill="#333333" d="M212.026,493.693c0.886-0.902,2.338-0.902,3.223,0c0.921,0.902,0.921,2.355,0,3.258
					c-0.849,0.867-2.337,0.886-3.223,0C211.105,496.049,211.141,494.561,212.026,493.693z"/>
			</g>
		</g>
		<g>
			<g>
				<path fill="#333333" d="M172.012,453.679c0.885-0.903,2.337-0.903,3.258,0c0.885,0.903,0.885,2.355,0,3.259
					c-0.885,0.867-2.373,0.902-3.258,0C171.091,456.034,171.126,454.546,172.012,453.679z"/>
			</g>
		</g>
		<g>
			<g>
				<path fill="#333333" d="M155.759,471.137c0.566-0.566,1.487-0.566,2.052-0.019c0.567,0.567,0.567,1.471-0.036,2.054
					c-0.53,0.55-1.451,0.55-2.017-0.016C155.227,472.589,155.227,471.686,155.759,471.137z"/>
			</g>
		</g>
	</g>
	<g>
		<g>
			<g>
				<polygon fill="#333333" points="99.605,335.707 100.188,335.105 114.504,349.412 131.573,332.361 171.764,372.57 
					147.119,397.233 187.593,437.727 187.026,438.329 145.878,397.215 170.559,372.57 131.573,333.582 114.539,350.65 				"/>
			</g>
		</g>
		<g>
			<g>
				<path fill="#333333" d="M185.68,436.416c0.921-0.921,2.374-0.885,3.259,0s0.885,2.338,0,3.258c-0.885,0.886-2.338,0.886-3.259,0
					C184.795,438.789,184.795,437.301,185.68,436.416z"/>
			</g>
		</g>
		<g>
			<g>
				<path fill="#333333" d="M145.063,395.799c0.921-0.885,2.374-0.885,3.258,0c0.921,0.887,0.921,2.373,0,3.258
					c-0.885,0.921-2.337,0.885-3.258,0C144.178,398.172,144.178,396.719,145.063,395.799z"/>
			</g>
		</g>
		<g>
			<g>
				<path fill="#333333" d="M98.792,334.291c0.725-0.727,1.911-0.744,2.637,0c0.725,0.726,0.725,1.912,0,2.638
					c-0.726,0.726-1.913,0.726-2.637,0.019C98.046,336.203,98.065,335.017,98.792,334.291z"/>
			</g>
		</g>
		<g>
			<g>
				<path fill="#333333" d="M169.746,371.153c0.885-0.921,2.338-0.921,3.258,0c0.886,0.886,0.886,2.338,0,3.259
					c-0.92,0.885-2.373,0.885-3.258,0C168.861,373.491,168.861,372.039,169.746,371.153z"/>
			</g>
		</g>
		<g>
			<g>
				<path fill="#333333" d="M129.731,331.139c0.921-0.885,2.374-0.885,3.258,0c0.885,0.886,0.885,2.338,0,3.259
					c-0.92,0.886-2.373,0.886-3.258,0C128.846,333.494,128.846,332.042,129.731,331.139z"/>
			</g>
		</g>
		<g>
			<g>
				<path fill="#333333" d="M113.512,348.596c0.532-0.53,1.487-0.564,2.018,0c0.567,0.568,0.567,1.488,0,2.055
					c-0.531,0.531-1.452,0.531-2.018-0.035S112.946,349.164,113.512,348.596z"/>
			</g>
		</g>
	</g>
	<g>
		<g>
			<g>
				<polygon fill="#333333" points="-88.675,471.049 -88.072,470.445 -73.768,484.753 -56.718,467.703 -16.489,507.912 
					-41.154,532.574 -0.661,573.067 -1.264,573.669 -42.375,532.557 -17.711,507.893 -56.698,468.906 -73.749,485.956 				"/>
			</g>
		</g>
		<g>
			<g>
				<path fill="#333333" d="M-2.59,571.739c0.901-0.885,2.354-0.885,3.257,0c0.885,0.903,0.885,2.354-0.018,3.259
					c-0.903,0.901-2.354,0.901-3.239,0C-3.495,574.094-3.495,572.643-2.59,571.739z"/>
			</g>
		</g>
		<g>
			<g>
				<path fill="#333333" d="M-43.19,531.14c0.903-0.902,2.355-0.902,3.257,0c0.885,0.903,0.885,2.355-0.016,3.241
					c-0.905,0.902-2.355,0.902-3.241,0.018C-44.093,533.495-44.093,532.043-43.19,531.14z"/>
			</g>
		</g>
		<g>
			<g>
				<path fill="#333333" d="M-89.489,469.632c0.726-0.726,1.911-0.744,2.655,0c0.726,0.726,0.707,1.913-0.018,2.638
					c-0.727,0.727-1.912,0.744-2.638,0.018C-90.233,471.545-90.215,470.357-89.489,469.632z"/>
			</g>
		</g>
		<g>
			<g>
				<path fill="#333333" d="M-17.942,506.053c0.885-0.903,2.338-0.903,3.239,0c0.904,0.885,0.904,2.354,0,3.24
					c-0.901,0.901-2.354,0.901-3.257,0C-18.845,508.406-18.845,506.955-17.942,506.053z"/>
			</g>
		</g>
		<g>
			<g>
				<path fill="#333333" d="M-58.523,466.48c0.904-0.902,2.355-0.902,3.24-0.018c0.903,0.902,0.903,2.355,0,3.256
					c-0.903,0.905-2.355,0.905-3.256,0C-59.425,468.834-59.425,467.383-58.523,466.48z"/>
			</g>
		</g>
		<g>
			<g>
				<path fill="#333333" d="M-74.76,483.955c0.567-0.583,1.47-0.583,2.02-0.035c0.583,0.584,0.583,1.488,0,2.054
					c-0.55,0.55-1.453,0.55-2.02-0.018C-75.308,485.408-75.308,484.504-74.76,483.955z"/>
			</g>
		</g>
	</g>
	<g>
		<g>
			<g>
				<polygon fill="#333333" points="173.04,610 173.286,609.736 179.377,615.826 186.637,608.549 203.811,625.688 193.293,636.205 
					210.539,653.468 210.256,653.733 192.727,636.205 203.244,625.688 186.637,609.099 179.377,616.358 				"/>
			</g>
		</g>
		<g>
			<g>
				<path fill="#333333" d="M209.689,652.901c0.389-0.391,1.027-0.371,1.381,0.019c0.389,0.371,0.425,0.992,0.035,1.381
					c-0.389,0.389-1.027,0.371-1.381-0.018C209.335,653.912,209.299,653.291,209.689,652.901z"/>
			</g>
		</g>
		<g>
			<g>
				<path fill="#333333" d="M192.408,635.604c0.39-0.39,0.992-0.373,1.382,0c0.353,0.389,0.353,0.992-0.036,1.381
					c-0.389,0.371-0.956,0.371-1.346,0C192.019,636.611,192.019,635.992,192.408,635.604z"/>
			</g>
		</g>
		<g>
			<g>
				<path fill="#333333" d="M172.684,609.398c0.319-0.319,0.815-0.335,1.134-0.035c0.282,0.301,0.282,0.815-0.036,1.133
					c-0.317,0.302-0.813,0.302-1.098,0C172.365,610.196,172.365,609.7,172.684,609.398z"/>
			</g>
		</g>
		<g>
			<g>
				<path fill="#333333" d="M202.89,625.086c0.389-0.39,1.027-0.371,1.416,0c0.354,0.389,0.354,0.992-0.035,1.381
					c-0.389,0.373-0.992,0.373-1.346,0C202.537,626.096,202.537,625.475,202.89,625.086z"/>
			</g>
		</g>
		<g>
			<g>
				<path fill="#333333" d="M185.857,608.035c0.391-0.389,1.026-0.371,1.382,0c0.389,0.39,0.425,1.01,0,1.417
					c-0.355,0.371-0.991,0.337-1.382-0.035C185.502,609.045,185.466,608.425,185.857,608.035z"/>
			</g>
		</g>
		<g>
			<g>
				<path fill="#333333" d="M178.954,615.473c0.246-0.214,0.6-0.249,0.849,0c0.247,0.265,0.247,0.638,0,0.85
					c-0.249,0.266-0.603,0.282-0.885,0.036C178.667,616.11,178.704,615.737,178.954,615.473z"/>
			</g>
		</g>
	</g>
	<g>
		<g>
			<g>
				<polygon fill="#333333" points="115.459,525.723 115.709,525.475 121.797,531.566 129.092,524.288 146.233,541.445 
					135.716,551.963 152.961,569.208 152.677,569.474 135.148,551.963 145.666,541.445 129.092,524.837 121.833,532.097 				"/>
			</g>
		</g>
		<g>
			<g>
				<path fill="#333333" d="M152.111,568.658c0.389-0.407,1.026-0.371,1.416,0c0.355,0.373,0.391,0.992,0,1.398
					c-0.389,0.373-1.026,0.355-1.38-0.018C151.756,569.65,151.756,569.031,152.111,568.658z"/>
			</g>
		</g>
		<g>
			<g>
				<path fill="#333333" d="M134.831,551.359c0.389-0.406,1.026-0.389,1.381,0c0.389,0.373,0.389,0.992,0,1.399
					c-0.355,0.373-0.992,0.354-1.381-0.034C134.476,552.352,134.44,551.732,134.831,551.359z"/>
			</g>
		</g>
		<g>
			<g>
				<path fill="#333333" d="M115.106,525.121c0.284-0.302,0.813-0.319,1.133,0c0.319,0.302,0.284,0.832,0,1.133
					c-0.319,0.3-0.813,0.3-1.133-0.018C114.788,525.917,114.788,525.423,115.106,525.121z"/>
			</g>
		</g>
		<g>
			<g>
				<path fill="#333333" d="M145.347,540.844c0.391-0.407,1.026-0.391,1.381,0c0.391,0.371,0.391,0.99,0,1.399
					c-0.355,0.371-0.991,0.353-1.381-0.036C144.992,541.834,144.958,541.215,145.347,540.844z"/>
			</g>
		</g>
		<g>
			<g>
				<path fill="#333333" d="M128.279,523.793c0.389-0.406,1.027-0.391,1.417,0c0.354,0.371,0.389,0.991,0,1.399
					c-0.389,0.371-1.028,0.354-1.381-0.036C127.925,524.784,127.89,524.164,128.279,523.793z"/>
			</g>
		</g>
		<g>
			<g>
				<path fill="#333333" d="M121.373,531.247c0.25-0.248,0.639-0.284,0.885-0.018c0.25,0.248,0.214,0.619-0.034,0.867
					c-0.212,0.229-0.602,0.248-0.851,0C121.126,531.849,121.126,531.478,121.373,531.247z"/>
			</g>
		</g>
	</g>
	<g>
		<g>
			<g>
				<polygon fill="#333333" points="-3.086,479.653 -2.787,479.352 4.189,486.329 12.494,478.006 32.094,497.606 20.072,509.629 
					39.813,529.37 39.512,529.671 19.487,509.646 31.511,497.625 12.494,478.609 4.189,486.93 				"/>
			</g>
		</g>
		<g>
			<g>
				<path fill="#333333" d="M38.875,528.732c0.46-0.46,1.151-0.46,1.594-0.018c0.442,0.442,0.442,1.151,0,1.611
					c-0.425,0.425-1.169,0.425-1.611,0C38.433,529.884,38.45,529.157,38.875,528.732z"/>
			</g>
		</g>
		<g>
			<g>
				<path fill="#333333" d="M19.08,508.938c0.46-0.46,1.151-0.46,1.611,0c0.425,0.425,0.425,1.134-0.036,1.576
					c-0.425,0.425-1.151,0.442-1.576,0.018C18.638,510.089,18.655,509.362,19.08,508.938z"/>
			</g>
		</g>
		<g>
			<g>
				<path fill="#333333" d="M-3.477,478.963c0.355-0.354,0.921-0.373,1.292-0.018c0.355,0.371,0.337,0.938-0.016,1.291
					c-0.355,0.355-0.905,0.355-1.258,0C-3.831,479.865-3.831,479.316-3.477,478.963z"/>
			</g>
		</g>
		<g>
			<g>
				<path fill="#333333" d="M31.102,496.916c0.442-0.442,1.151-0.442,1.593,0c0.443,0.425,0.443,1.133-0.018,1.576
					c-0.425,0.424-1.133,0.424-1.558,0C30.677,498.049,30.677,497.341,31.102,496.916z"/>
			</g>
		</g>
		<g>
			<g>
				<path fill="#333333" d="M11.609,477.423c0.442-0.444,1.168-0.444,1.593-0.019c0.442,0.443,0.442,1.151,0,1.61
					c-0.425,0.427-1.151,0.408-1.576-0.017C11.202,478.556,11.182,477.848,11.609,477.423z"/>
			</g>
		</g>
		<g>
			<g>
				<path fill="#333333" d="M3.693,485.938c0.286-0.283,0.71-0.283,0.992-0.018c0.284,0.284,0.284,0.727,0,1.01
					c-0.282,0.267-0.726,0.267-1.008,0C3.411,486.646,3.429,486.222,3.693,485.938z"/>
			</g>
		</g>
	</g>
	<g>
		<g>
			<g>
				<polygon fill="#333333" points="204.414,543.197 204.732,543.499 197.897,550.334 206.042,558.495 186.814,577.741 
					174.987,565.949 155.616,585.337 155.333,585.036 174.987,565.348 186.814,577.175 205.474,558.514 197.294,550.334 				"/>
			</g>
		</g>
		<g>
			<g>
				<path fill="#333333" d="M156.253,584.398c0.426,0.425,0.426,1.133,0,1.558c-0.425,0.425-1.133,0.425-1.558,0
					c-0.424-0.425-0.424-1.133,0-1.558C155.12,583.974,155.829,583.974,156.253,584.398z"/>
			</g>
		</g>
		<g>
			<g>
				<path fill="#333333" d="M175.695,564.977c0.425,0.425,0.425,1.132,0,1.558c-0.425,0.425-1.135,0.425-1.56,0
					c-0.425-0.426-0.425-1.133,0-1.558S175.27,564.552,175.695,564.977z"/>
			</g>
		</g>
		<g>
			<g>
				<path fill="#333333" d="M205.121,542.791c0.354,0.354,0.354,0.956,0,1.293c-0.354,0.354-0.921,0.336-1.274-0.02
					c-0.354-0.354-0.354-0.901,0-1.256C204.2,542.473,204.767,542.438,205.121,542.791z"/>
			</g>
		</g>
		<g>
			<g>
				<path fill="#333333" d="M187.487,576.769c0.425,0.425,0.425,1.133,0,1.558s-1.134,0.425-1.56,0
					c-0.425-0.425-0.425-1.133,0-1.558C186.353,576.344,187.062,576.344,187.487,576.769z"/>
			</g>
		</g>
		<g>
			<g>
				<path fill="#333333" d="M206.644,557.61c0.425,0.425,0.425,1.133,0,1.558c-0.46,0.443-1.135,0.425-1.56,0s-0.46-1.097,0-1.558
					C205.509,557.186,206.219,557.186,206.644,557.61z"/>
			</g>
		</g>
		<g>
			<g>
				<path fill="#333333" d="M198.25,549.855c0.283,0.266,0.283,0.726,0.035,0.974c-0.282,0.265-0.706,0.265-0.991,0
					c-0.282-0.283-0.247-0.708,0.035-0.974C197.58,549.607,198.003,549.571,198.25,549.855z"/>
			</g>
		</g>
	</g>
	<g>
		<g>
			<g>
				<polygon fill="#333333" points="100.613,449.447 100.312,449.146 107.166,442.294 99.002,434.114 118.257,414.852 
					130.084,426.678 149.455,407.309 149.738,407.592 130.084,427.279 118.257,415.453 99.605,434.114 107.767,442.294 				"/>
			</g>
		</g>
		<g>
			<g>
				<path fill="#333333" d="M148.853,408.229c-0.46-0.441-0.46-1.133-0.036-1.557c0.425-0.426,1.133-0.426,1.558,0
					c0.425,0.424,0.425,1.115,0,1.557C149.951,408.654,149.278,408.654,148.853,408.229z"/>
			</g>
		</g>
		<g>
			<g>
				<path fill="#333333" d="M129.412,427.669c-0.458-0.46-0.458-1.132-0.034-1.575c0.425-0.426,1.132-0.426,1.592,0.018
					c0.424,0.426,0.389,1.098-0.036,1.521C130.509,428.094,129.838,428.094,129.412,427.669z"/>
			</g>
		</g>
		<g>
			<g>
				<path fill="#333333" d="M99.942,449.819c-0.355-0.354-0.355-0.903,0-1.259c0.335-0.353,0.921-0.371,1.274-0.016
					c0.354,0.336,0.318,0.921-0.036,1.274C100.844,450.172,100.278,450.172,99.942,449.819z"/>
			</g>
		</g>
		<g>
			<g>
				<path fill="#333333" d="M117.586,415.842c-0.426-0.425-0.46-1.098,0-1.559c0.425-0.424,1.131-0.424,1.556,0
					c0.425,0.427,0.425,1.134,0,1.559C118.682,416.302,118.011,416.266,117.586,415.842z"/>
			</g>
		</g>
		<g>
			<g>
				<path fill="#333333" d="M98.437,435c-0.425-0.426-0.425-1.134,0-1.559c0.424-0.425,1.115-0.425,1.54,0
					c0.426,0.425,0.426,1.133,0,1.559C99.552,435.424,98.861,435.424,98.437,435z"/>
			</g>
		</g>
		<g>
			<g>
				<path fill="#333333" d="M106.793,442.754c-0.266-0.248-0.266-0.672,0-0.956c0.284-0.266,0.708-0.282,0.974-0.017
					c0.284,0.265,0.266,0.725,0,0.991C107.483,443.038,107.077,443.038,106.793,442.754z"/>
			</g>
		</g>
	</g>
	<g>
		<g>
			<g>
				<polygon fill="#333333" points="-57.956,462.69 -58.187,462.46 -52.822,457.113 -59.195,450.723 -44.182,435.708 
					-34.957,444.934 -19.801,429.794 -19.571,430.006 -34.957,445.374 -44.182,436.168 -58.754,450.723 -52.38,457.113 				"/>
			</g>
		</g>
		<g>
			<g>
				<path fill="#333333" d="M-20.297,430.484c-0.335-0.319-0.335-0.867,0-1.187c0.319-0.335,0.868-0.335,1.187,0
					c0.355,0.337,0.355,0.887,0.018,1.204C-19.411,430.82-19.961,430.84-20.297,430.484z"/>
			</g>
		</g>
		<g>
			<g>
				<path fill="#333333" d="M-35.47,445.658c-0.336-0.318-0.355-0.85,0-1.203c0.319-0.319,0.867-0.319,1.185,0
					c0.355,0.354,0.355,0.885,0.019,1.221C-34.621,446.013-35.135,446.013-35.47,445.658z"/>
			</g>
		</g>
		<g>
			<g>
				<path fill="#333333" d="M-58.47,462.975c-0.266-0.267-0.266-0.709-0.018-0.955c0.266-0.284,0.726-0.284,0.992-0.02
					c0.266,0.283,0.266,0.708-0.018,0.992C-57.762,463.24-58.204,463.258-58.47,462.975z"/>
			</g>
		</g>
		<g>
			<g>
				<path fill="#333333" d="M-44.696,436.451c-0.335-0.353-0.354-0.849,0-1.203c0.337-0.32,0.869-0.336,1.205,0
					c0.335,0.336,0.319,0.885,0,1.203C-43.846,436.805-44.359,436.787-44.696,436.451z"/>
			</g>
		</g>
		<g>
			<g>
				<path fill="#333333" d="M-59.674,451.412c-0.336-0.335-0.318-0.867,0.036-1.221c0.319-0.318,0.869-0.336,1.204,0
					c0.335,0.354,0.319,0.886,0,1.203C-58.79,451.748-59.319,451.768-59.674,451.412z"/>
			</g>
		</g>
		<g>
			<g>
				<path fill="#333333" d="M-53.122,457.467c-0.214-0.212-0.214-0.529,0-0.742c0.21-0.214,0.548-0.214,0.76,0
					c0.212,0.213,0.212,0.549,0,0.761S-52.912,457.682-53.122,457.467z"/>
			</g>
		</g>
	</g>
	<g>
		<g>
			<g>
				<polygon fill="#333333" points="50.792,589.622 50.562,589.392 55.89,584.063 49.498,577.671 64.548,562.621 73.772,571.845 
					88.911,556.726 89.124,556.955 73.755,572.323 64.548,563.117 49.994,577.653 56.368,584.027 				"/>
			</g>
		</g>
		<g>
			<g>
				<path fill="#333333" d="M88.415,557.434c-0.336-0.337-0.319-0.867,0-1.204c0.355-0.337,0.885-0.354,1.221-0.018
					c0.355,0.354,0.355,0.902,0,1.256C89.318,557.787,88.77,557.787,88.415,557.434z"/>
			</g>
		</g>
		<g>
			<g>
				<path fill="#333333" d="M73.242,572.607c-0.335-0.336-0.319-0.868,0-1.205c0.319-0.317,0.867-0.335,1.205,0
					c0.353,0.355,0.353,0.903,0.016,1.24C74.145,572.962,73.595,572.962,73.242,572.607z"/>
			</g>
		</g>
		<g>
			<g>
				<path fill="#333333" d="M50.242,589.923c-0.266-0.266-0.266-0.726,0-0.992c0.284-0.283,0.708-0.266,0.974,0.019
					c0.282,0.283,0.301,0.69,0.016,0.956C50.95,590.189,50.526,590.207,50.242,589.923z"/>
			</g>
		</g>
		<g>
			<g>
				<path fill="#333333" d="M64.036,563.4c-0.337-0.337-0.337-0.885-0.02-1.222c0.319-0.319,0.869-0.319,1.222,0.018
					c0.318,0.319,0.318,0.867,0,1.204C64.901,563.719,64.354,563.719,64.036,563.4z"/>
			</g>
		</g>
		<g>
			<g>
				<path fill="#333333" d="M49.073,578.344c-0.337-0.337-0.354-0.869,0-1.204c0.318-0.336,0.869-0.336,1.205,0
					c0.335,0.335,0.335,0.885,0,1.204C49.923,578.697,49.41,578.68,49.073,578.344z"/>
			</g>
		</g>
		<g>
			<g>
				<path fill="#333333" d="M55.606,584.416c-0.21-0.212-0.21-0.567-0.016-0.762c0.195-0.194,0.548-0.194,0.76,0.018
					c0.212,0.213,0.194,0.55,0,0.744C56.156,584.611,55.82,584.629,55.606,584.416z"/>
			</g>
		</g>
	</g>
	<g>
		<g>
			<g>
				<polygon fill="#333333" points="22.073,457.397 21.789,457.113 28.624,450.262 20.461,442.117 39.707,422.854 51.518,434.646 
					70.886,415.275 71.188,415.56 51.518,435.248 39.707,423.438 21.045,442.082 29.208,450.262 				"/>
			</g>
		</g>
		<g>
			<g>
				<path fill="#333333" d="M70.267,416.197c-0.425-0.426-0.425-1.134,0-1.559s1.115-0.425,1.54,0c0.442,0.425,0.442,1.133,0,1.559
					C71.382,416.621,70.692,416.621,70.267,416.197z"/>
			</g>
		</g>
		<g>
			<g>
				<path fill="#333333" d="M50.827,435.619c-0.426-0.426-0.426-1.115,0-1.541c0.425-0.424,1.131-0.424,1.556,0
					c0.425,0.426,0.425,1.115,0,1.541C51.958,436.043,51.252,436.043,50.827,435.619z"/>
			</g>
		</g>
		<g>
			<g>
				<path fill="#333333" d="M21.382,457.787c-0.354-0.336-0.337-0.922,0.018-1.276c0.354-0.353,0.919-0.335,1.256,0
					c0.337,0.354,0.354,0.921,0,1.276C22.319,458.122,21.719,458.142,21.382,457.787z"/>
			</g>
		</g>
		<g>
			<g>
				<path fill="#333333" d="M39.034,423.811c-0.424-0.426-0.424-1.135,0-1.559c0.427-0.426,1.117-0.426,1.542,0
					c0.441,0.459,0.441,1.15,0.016,1.575S39.46,424.252,39.034,423.811z"/>
			</g>
		</g>
		<g>
			<g>
				<path fill="#333333" d="M19.878,442.967c-0.425-0.425-0.425-1.133,0-1.558c0.441-0.442,1.115-0.425,1.54,0
					c0.442,0.442,0.477,1.133,0.016,1.575C21.009,443.409,20.302,443.409,19.878,442.967z"/>
			</g>
		</g>
		<g>
			<g>
				<path fill="#333333" d="M28.252,450.758c-0.284-0.283-0.284-0.744-0.036-0.992c0.282-0.283,0.727-0.283,1.008,0
					c0.266,0.266,0.25,0.709-0.036,0.992C28.943,451.006,28.518,451.006,28.252,450.758z"/>
			</g>
		</g>
	</g>
	<g>
		<g>
			<g>
				<polygon fill="#333333" points="-96.519,436.258 -96.218,435.955 -89.366,442.809 -81.204,434.646 -61.957,453.891 
					-73.768,465.701 -54.38,485.106 -54.662,485.373 -74.334,465.701 -62.542,453.891 -81.204,435.248 -89.366,443.409 				"/>
			</g>
		</g>
		<g>
			<g>
				<path fill="#333333" d="M-55.319,484.47c0.443-0.427,1.133-0.427,1.558,0c0.424,0.425,0.424,1.133,0,1.558
					c-0.425,0.425-1.115,0.425-1.558,0C-55.744,485.603-55.744,484.895-55.319,484.47z"/>
			</g>
		</g>
		<g>
			<g>
				<path fill="#333333" d="M-74.76,465.027c0.426-0.424,1.135-0.424,1.56,0c0.442,0.443,0.425,1.134,0,1.559
					c-0.425,0.426-1.115,0.442-1.56,0C-75.185,466.161-75.185,465.453-74.76,465.027z"/>
			</g>
		</g>
		<g>
			<g>
				<path fill="#333333" d="M-96.909,435.566c0.354-0.354,0.92-0.337,1.257,0c0.354,0.354,0.372,0.921,0.018,1.274
					c-0.354,0.354-0.921,0.337-1.275-0.018C-97.245,436.487-97.245,435.92-96.909,435.566z"/>
			</g>
		</g>
		<g>
			<g>
				<path fill="#333333" d="M-62.933,453.219c0.427-0.425,1.135-0.425,1.56,0c0.425,0.424,0.425,1.115,0,1.54
					c-0.425,0.427-1.115,0.442-1.56,0C-63.357,454.334-63.357,453.643-62.933,453.219z"/>
			</g>
		</g>
		<g>
			<g>
				<circle fill="#333333" cx="-81.301" cy="434.849" r="1.089"/>
			</g>
		</g>
		<g>
			<g>
				<path fill="#333333" d="M-89.844,442.437c0.248-0.249,0.673-0.283,0.957,0c0.284,0.282,0.264,0.707,0.018,0.955
					c-0.284,0.284-0.726,0.284-0.992,0.018C-90.144,443.144-90.11,442.719-89.844,442.437z"/>
			</g>
		</g>
	</g>
	<g>
		<g>
			<polygon fill="#333333" points="197.224,528.396 198.076,529.247 140.459,586.877 105.872,552.298 51.232,606.938 
				75.153,630.858 54.208,651.786 53.358,650.936 73.436,630.858 49.534,606.938 105.872,550.6 140.459,585.179 			"/>
		</g>
		<g>
			<path fill="#333333" d="M195.382,531.105c-1.24-1.258-1.24-3.312,0-4.567c1.24-1.258,3.293-1.258,4.568,0
				c1.24,1.256,1.24,3.31,0,4.567C198.675,532.345,196.623,532.345,195.382,531.105z"/>
		</g>
		<g>
			<path fill="#333333" d="M138.479,588.011c-1.276-1.257-1.276-3.275-0.036-4.533c1.274-1.273,3.292-1.256,4.568,0
				c1.239,1.258,1.274,3.276,0,4.551C141.735,589.286,139.717,589.269,138.479,588.011z"/>
		</g>
		<g>
			<path fill="#333333" d="M52.242,652.92c-1.026-1.028-1.026-2.691,0-3.719c1.01-1.009,2.673-1.026,3.701,0
				c0.992,1.01,0.992,2.673-0.036,3.683C54.88,653.912,53.234,653.912,52.242,652.92z"/>
		</g>
		<g>
			<path fill="#333333" d="M103.89,553.432c-1.256-1.257-1.276-3.274-0.018-4.533c1.274-1.273,3.294-1.256,4.55,0
				c1.256,1.259,1.276,3.276,0,4.551C107.166,554.707,105.146,554.689,103.89,553.432z"/>
		</g>
		<g>
			<path fill="#333333" d="M47.799,609.523c-1.24-1.258-1.24-3.312,0-4.568c1.274-1.275,3.311-1.24,4.568,0
				c1.238,1.257,1.274,3.293,0,4.568C51.109,610.78,49.055,610.78,47.799,609.523z"/>
		</g>
		<g>
			<path fill="#333333" d="M72.285,632.273c-0.78-0.778-0.796-2.07,0-2.867c0.78-0.78,2.054-0.761,2.832,0.018
				c0.798,0.798,0.798,2.054,0.02,2.85C74.339,633.054,73.081,633.071,72.285,632.273z"/>
		</g>
	</g>
	<g>
		
			<rect x="-21.203" y="577.007" transform="matrix(-0.707 -0.7072 0.7072 -0.707 -374.1072 999.621)" fill="#333333" width="82.443" height="0.6"/>
	</g>
	<g>
		<path fill="#333333" d="M-11.585,545.712c1.381-1.363,3.558-1.346,4.904,0c1.345,1.363,1.381,3.542,0,4.923
			c-1.346,1.346-3.559,1.346-4.904,0C-12.949,549.271-12.949,547.075-11.585,545.712z"/>
	</g>
	<g>
		<polygon fill="#333333" points="230.228,561.24 230.652,561.665 203.775,588.56 204.236,606.566 203.634,606.566 203.173,588.312 
					"/>
	</g>
	<g>
		<polygon fill="#333333" points="108.353,392.117 115.39,399.164 88.699,425.863 88.274,425.438 114.539,399.164 107.926,392.542 
					"/>
	</g>
	<g>
		<polygon fill="#333333" points="188.583,519.597 189.221,520.233 166.771,542.684 136.565,512.496 137.203,511.841 
			166.806,541.409 		"/>
	</g>
	<g>
		<polygon fill="#333333" points="-4.467,406.955 -3.831,407.592 -12.826,416.586 -35.312,394.1 -40.959,399.766 -41.596,399.129 
			-35.312,392.842 -12.826,415.329 		"/>
	</g>
	<g>
		<polygon fill="#333333" points="58.316,396.543 63.911,402.121 63.274,402.74 58.352,397.818 28.304,427.848 15.875,415.453 
			16.53,414.779 28.304,426.554 		"/>
	</g>
	<g>
		<polygon fill="#333333" points="156.466,471.845 157.104,472.481 137.062,492.507 111.53,466.977 101.624,476.891 
			100.986,476.254 111.565,465.701 137.097,491.215 		"/>
	</g>
	<g>
		<polygon fill="#333333" points="95.886,443.568 101.038,448.704 100.613,449.146 95.886,444.42 78.288,462.02 89.814,473.562 
			89.389,473.988 77.438,462.02 		"/>
	</g>
	<g>
		<polygon fill="#333333" points="211.955,663.223 212.379,663.647 205.474,670.536 180.44,645.502 142.231,683.709 
			141.805,683.284 180.44,644.65 205.474,669.687 		"/>
	</g>
	<g>
		<polygon fill="#333333" points="83.103,645.783 122.012,684.7 121.587,685.125 83.103,646.633 66.302,663.438 54.014,651.132 
			54.439,650.705 66.302,662.586 		"/>
	</g>
	<g>
		<polygon fill="#333333" points="19.434,539.586 20.088,540.24 9.944,550.369 -14.312,526.113 -5.777,517.578 -16.064,507.291 
			-15.427,506.636 -4.487,517.561 -13.037,526.094 9.944,549.077 		"/>
	</g>
	<g>
		<polygon fill="#333333" points="-28.547,527.865 -9.532,546.863 -9.992,547.323 -28.566,528.751 -34.957,535.125 -37.949,532.114 
			-41.084,532.858 -41.225,532.257 -37.772,531.459 -34.957,534.273 		"/>
	</g>
	<g>
		<polygon fill="#333333" points="138.939,621.51 139.363,621.935 125.163,636.135 142.443,653.432 142.019,653.858 
			124.313,636.135 		"/>
	</g>
	<g>
		<polygon fill="#333333" points="69.434,529.086 89,548.669 88.575,549.094 69.434,529.938 63.52,535.851 63.095,535.425 		"/>
	</g>
	<g>
		<polygon fill="#333333" points="-88.445,470.66 -88.021,471.084 -99.21,482.273 -68.898,512.585 -60.719,504.405 -60.294,504.83 
			-68.898,513.435 -100.06,482.273 		"/>
	</g>
	<g>
		<polygon fill="#333333" points="-44.696,364.886 -37.808,371.773 -38.233,372.198 -44.696,365.736 -83.913,404.936 
			-84.337,404.51 		"/>
	</g>
	<g>
		<polygon fill="#333333" points="100.117,335.176 100.756,335.813 94.382,342.188 92.08,339.886 73.436,358.512 72.799,357.875 
			92.044,338.611 94.364,340.948 		"/>
	</g>
	<g>
		<polygon fill="#333333" points="213.725,468.553 227.501,482.326 214.4,495.41 213.725,494.755 226.227,482.291 213.725,469.826 
			210.185,473.387 193.507,456.707 194.142,456.086 210.149,472.11 		"/>
	</g>
	
		<rect x="-27.698" y="459.024" transform="matrix(0.707 -0.7072 0.7072 0.707 -335.2112 120.8802)" fill="#D74434" width="11.968" height="11.971"/>
	
		<rect x="143.753" y="296.365" transform="matrix(0.707 -0.7072 0.7072 0.707 -169.9488 194.4735)" fill="#D74434" width="11.968" height="11.969"/>
	
		<rect x="21.966" y="577.6" transform="matrix(0.7071 -0.7071 0.7071 0.7071 -404.4817 190.7045)" fill="#D74434" width="11.969" height="11.97"/>
	
		<rect x="159.795" y="554.369" transform="matrix(0.707 -0.7072 0.7072 0.707 -347.7072 281.4066)" fill="#D74434" width="11.968" height="11.971"/>
	
		<rect x="64.973" y="435.778" transform="matrix(0.707 -0.7072 0.7072 0.707 -291.6209 179.6052)" fill="#D74434" width="11.968" height="11.969"/>
	
		<rect x="68.177" y="578.414" transform="matrix(0.7072 -0.707 0.707 0.7072 -391.4792 223.5667)" fill="#D74434" width="11.971" height="11.968"/>
	
		<rect x="-44.801" y="367.684" transform="matrix(0.7072 -0.707 0.707 0.7072 -275.55 81.9635)" fill="#D74434" width="11.97" height="11.968"/>
	
		<rect x="-2.786" y="507.557" transform="matrix(0.7071 -0.7071 0.7071 0.7071 -362.1818 152.6641)" fill="#FF7F00" width="11.969" height="11.969"/>
	<polygon fill="#FF7F00" points="254.2,566.48 245.738,574.962 237.274,566.48 245.738,558.018 	"/>
	
		<rect x="123.285" y="367.593" transform="matrix(0.707 -0.7072 0.7072 0.707 -226.3273 200.8876)" fill="#FF7F00" width="11.969" height="11.97"/>
	
		<rect x="171.161" y="418.568" transform="matrix(0.707 -0.7072 0.7072 0.707 -248.3396 249.6585)" fill="#029ECF" width="11.968" height="11.97"/>
	
		<rect x="23.453" y="367.01" transform="matrix(0.707 -0.7072 0.7072 0.707 -255.1534 130.0959)" fill="#029ECF" width="11.968" height="11.971"/>
	<polygon fill="#029ECF" points="115.213,529.229 107.962,536.488 100.703,529.229 107.962,521.97 	"/>
	
		<rect x="-68.687" y="417.471" transform="matrix(0.7071 -0.7071 0.7071 0.7071 -317.7827 79.6835)" fill="#029ECF" width="11.971" height="11.969"/>
	
		<rect x="66.726" y="500.548" transform="matrix(0.7072 -0.707 0.707 0.7072 -336.8311 199.7142)" fill="#8F6CB0" width="11.967" height="11.967"/>
	
		<rect x="-93.721" y="464.64" transform="matrix(0.7072 -0.707 0.707 0.7072 -358.4449 75.7797)" fill="#8F6CB0" width="11.968" height="11.968"/>
	
		<rect x="154.306" y="482.928" transform="matrix(0.707 -0.7072 0.7072 0.707 -298.7928 256.5943)" fill="#8F6CB0" width="11.968" height="11.971"/>
	<polygon fill="#8F6CB0" points="120.277,652.761 111.812,661.223 103.359,652.761 111.812,644.297 	"/>
	<g>
		<path fill="#333333" d="M14.087,396.259c-2.284,2.302-5.985,2.302-8.251,0.02c-2.282-2.286-2.282-5.967,0-8.269
			c2.284-2.267,5.967-2.267,8.251,0.018C16.354,390.312,16.372,393.992,14.087,396.259z M6.386,388.575
			c-1.983,1.984-1.983,5.171,0,7.153c1.964,1.982,5.169,1.982,7.154,0c1.964-1.982,1.964-5.169,0-7.153
			C11.555,386.61,8.35,386.61,6.386,388.575z"/>
	</g>
	<g>
		<path fill="#333333" d="M-36.337,404.899c-2.267,2.268-5.967,2.286-8.251,0c-2.284-2.267-2.266-5.983,0-8.249
			c2.284-2.285,5.967-2.268,8.251,0C-34.055,398.934-34.055,402.617-36.337,404.899z M-44.021,397.199
			c-1.984,1.965-1.984,5.188-0.02,7.152c1.984,1.965,5.189,1.965,7.154,0c1.966-1.965,1.966-5.188,0-7.137
			C-38.852,395.232-42.057,395.232-44.021,397.199z"/>
	</g>
	<g>
		<path fill="#333333" d="M-91.42,433.547c-2.266,2.268-5.967,2.285-8.25,0c-2.284-2.266-2.267-5.983,0-8.25
			c2.283-2.283,5.966-2.266,8.25,0C-89.136,427.581-89.136,431.265-91.42,433.547z M-99.122,425.847
			c-1.966,1.965-1.966,5.188,0,7.152c1.965,1.965,5.169,1.965,7.152-0.019c1.966-1.946,1.966-5.169,0-7.134
			C-93.952,423.881-97.157,423.881-99.122,425.847z"/>
	</g>
	<g>
		<path fill="#333333" d="M-79.912,409.114c-2.282,2.267-5.985,2.284-8.267,0c-2.267-2.267-2.267-5.985,0.016-8.251
			c2.266-2.283,5.969-2.267,8.235,0C-77.646,403.146-77.646,406.83-79.912,409.114z M-87.614,401.412
			c-1.982,1.965-1.982,5.188-0.018,7.154c1.984,1.965,5.188,1.965,7.171-0.02c1.965-1.947,1.965-5.17-0.018-7.117
			C-82.444,399.446-85.647,399.446-87.614,401.412z"/>
	</g>
	<g>
		<path fill="#333333" d="M32.785,331.671c-2.284,2.267-5.985,2.267-8.251,0c-2.284-2.267-2.284-5.985,0-8.251
			c2.284-2.284,5.967-2.267,8.251,0C35.051,325.686,35.067,329.387,32.785,331.671z M25.082,323.969
			c-1.981,1.965-1.981,5.188,0,7.152c1.966,1.966,5.171,1.966,7.154-0.018c1.966-1.947,1.966-5.17,0-7.135
			C30.252,322.003,27.048,322.003,25.082,323.969z"/>
	</g>
	<g>
		<path fill="#333333" d="M124.915,309.477c-2.267,2.274-5.983,2.284-8.25,0c-2.266-2.275-2.266-5.977,0-8.251
			c2.3-2.284,5.983-2.275,8.25,0C127.181,303.51,127.217,307.193,124.915,309.477z M117.231,301.775
			c-1.982,1.973-1.982,5.178,0,7.152c1.947,1.975,5.169,1.975,7.154-0.009c1.947-1.966,1.947-5.171,0-7.136
			C122.4,299.809,119.178,299.809,117.231,301.775z"/>
	</g>
	<g>
		<path fill="#333333" d="M135.927,336.911c-2.266,2.284-5.949,2.302-8.25,0c-2.266-2.267-2.266-5.967,0-8.251
			c2.3-2.266,5.983-2.266,8.25,0C138.229,330.963,138.229,334.645,135.927,336.911z M128.243,329.227
			c-1.982,1.966-1.982,5.171,0,7.153c1.949,1.965,5.171,1.965,7.154-0.018c1.947-1.965,1.947-5.17,0-7.136
			C133.414,327.244,130.191,327.244,128.243,329.227z"/>
	</g>
	<g>
		<path fill="#333333" d="M118.717,353.342c-2.266,2.267-5.985,2.283-8.259,0c-2.284-2.267-2.266-5.984,0-8.25
			c2.274-2.268,5.958-2.268,8.259,0C120.984,347.375,120.984,351.075,118.717,353.342z M111.008,345.64
			c-1.965,1.983-1.965,5.188,0,7.153c1.975,1.965,5.162,1.965,7.144,0s1.982-5.17,0-7.136
			C116.169,343.675,112.982,343.675,111.008,345.64z"/>
	</g>
	<g>
		<path fill="#333333" d="M34.59,500.369c-1.629,1.611-4.25,1.629-5.861,0.018c-1.611-1.629-1.611-4.25,0-5.861
			c1.63-1.611,4.232-1.611,5.844,0C36.184,496.154,36.202,498.758,34.59,500.369z M29.12,494.916c-1.399,1.398-1.399,3.682,0,5.08
			s3.665,1.398,5.082-0.018c1.381-1.381,1.381-3.664-0.02-5.063C32.785,493.517,30.519,493.517,29.12,494.916z"/>
	</g>
	<g>
		<path fill="#333333" d="M54.419,438.081c-1.627,1.609-4.247,1.629-5.858,0c-1.611-1.611-1.611-4.251,0-5.844
			c1.627-1.628,4.231-1.628,5.842,0C56.015,433.849,56.031,436.451,54.419,438.081z M48.95,432.628c-1.399,1.38-1.399,3.681,0,5.063
			c1.397,1.399,3.664,1.399,5.08,0c1.381-1.382,1.381-3.683-0.016-5.063C52.614,431.229,50.347,431.229,48.95,432.628z"/>
	</g>
	<g>
		<path fill="#333333" d="M23.561,444.88c-1.611,1.629-4.233,1.629-5.844,0c-1.629-1.594-1.611-4.215,0-5.845
			c1.611-1.611,4.233-1.592,5.844,0C25.17,440.665,25.17,443.269,23.561,444.88z M18.107,439.426c-1.4,1.416-1.4,3.682,0,5.083
			c1.379,1.397,3.664,1.397,5.063-0.02c1.399-1.382,1.399-3.647,0-5.063C21.771,438.045,19.487,438.045,18.107,439.426z"/>
	</g>
	<g>
		<path fill="#333333" d="M59.413,363.363c-1.612,1.611-4.231,1.629-5.843,0c-1.611-1.611-1.611-4.25,0-5.843
			c1.611-1.63,4.231-1.63,5.843,0C61.024,359.132,61.043,361.734,59.413,363.363z M53.959,357.909c-1.397,1.382-1.397,3.683,0,5.064
			c1.401,1.399,3.667,1.399,5.082,0c1.381-1.382,1.381-3.683-0.018-5.064C57.626,356.512,55.36,356.512,53.959,357.909z"/>
	</g>
	<g>
		<path fill="#333333" d="M-31.928,448.279c-1.611,1.629-4.233,1.629-5.844,0.018s-1.611-4.232,0-5.86
			c1.611-1.595,4.233-1.595,5.844,0.017S-30.301,446.686-31.928,448.279z M-37.382,442.826c-1.4,1.416-1.4,3.683,0,5.08
			c1.397,1.398,3.664,1.398,5.063,0c1.399-1.397,1.399-3.664,0-5.063C-33.718,441.445-35.984,441.445-37.382,442.826z"/>
	</g>
	<g>
		<path fill="#333333" d="M83.262,320.161c-2.283,2.284-5.983,2.284-8.268,0c-2.266-2.267-2.266-5.966,0.018-8.251
			c2.267-2.274,5.967-2.266,8.233,0.01C85.528,314.195,85.528,317.895,83.262,320.161z M75.562,312.469
			c-1.984,1.975-1.984,5.178,0,7.162c1.965,1.965,5.169,1.965,7.152-0.018c1.965-1.967,1.965-5.17-0.018-7.145
			C80.731,310.503,77.526,310.503,75.562,312.469z"/>
	</g>
	<g>
		<path fill="#333333" d="M119.852,452.369c-2.266,2.266-5.985,2.284-8.251,0c-2.276-2.284-2.276-5.984,0-8.27
			c2.266-2.266,5.985-2.266,8.251,0.018C122.119,446.402,122.119,450.085,119.852,452.369z M112.167,444.668
			c-1.993,1.982-1.993,5.169-0.036,7.151c1.982,1.965,5.205,1.965,7.189-0.018c1.947-1.965,1.947-5.151-0.036-7.134
			C117.336,442.684,114.114,442.684,112.167,444.668z"/>
	</g>
	<g>
		<path fill="#333333" d="M122.508,419.242c-2.267,2.283-5.95,2.303-8.251,0c-2.266-2.266-2.266-5.967,0-8.251
			c2.302-2.267,5.985-2.267,8.251,0C124.81,413.293,124.81,416.977,122.508,419.242z M114.824,411.557
			c-1.984,1.967-1.984,5.17,0,7.154c1.947,1.965,5.168,1.965,7.152-0.018c1.948-1.967,1.948-5.17,0-7.137
			C119.992,409.574,116.771,409.574,114.824,411.557z"/>
	</g>
	<g>
		<path fill="#333333" d="M-53.07,472.465c-2.283,2.267-5.985,2.283-8.268,0c-2.266-2.285-2.266-5.984,0.016-8.25
			c2.267-2.285,5.969-2.285,8.235,0C-50.804,466.498-50.804,470.18-53.07,472.465z M-60.772,464.762
			c-1.982,1.984-1.982,5.188-0.018,7.154c1.984,1.965,5.188,1.965,7.172,0c1.965-1.967,1.965-5.17-0.018-7.154
			C-55.603,462.797-58.806,462.797-60.772,464.762z"/>
	</g>
	<g>
		<path fill="#333333" d="M182.209,474.607c-2.266,2.283-5.983,2.283-8.249,0c-2.302-2.285-2.267-5.968,0-8.252
			c2.266-2.283,5.947-2.283,8.249,0C184.476,468.64,184.476,472.322,182.209,474.607z M174.526,466.905
			c-1.982,1.982-1.982,5.188-0.035,7.152c1.982,1.983,5.205,1.983,7.189,0c1.946-1.965,1.946-5.17-0.036-7.152
			C179.696,464.94,176.473,464.94,174.526,466.905z"/>
	</g>
	<g>
		<path fill="#333333" d="M2.738,577.564c-2.284,2.284-5.985,2.284-8.269,0c-2.283-2.267-2.267-5.968,0.018-8.25
			c2.267-2.267,5.949-2.267,8.233,0C5.004,571.597,5.004,575.298,2.738,577.564z M-4.963,569.862
			c-1.984,1.982-1.984,5.188-0.018,7.152c1.983,1.984,5.188,1.984,7.17,0c1.965-1.965,1.965-5.17-0.016-7.152
			C0.206,567.897-2.999,567.897-4.963,569.862z"/>
	</g>
	<g>
		<path fill="#333333" d="M78.252,635.054c-2.284,2.284-5.985,2.284-8.269,0c-2.266-2.267-2.266-5.967,0.018-8.25
			c2.284-2.266,5.967-2.266,8.233,0C80.519,629.087,80.535,632.787,78.252,635.054z M70.549,627.352
			c-1.981,1.984-1.981,5.188-0.017,7.154c1.983,1.982,5.188,1.982,7.17,0c1.967-1.967,1.967-5.17-0.018-7.154
			C75.72,625.388,72.516,625.388,70.549,627.352z"/>
	</g>
	<g>
		<path fill="#333333" d="M143.541,626.644c-2.266,2.284-5.983,2.284-8.25,0c-2.267-2.284-2.267-5.967,0-8.249
			c2.302-2.284,5.983-2.284,8.25,0C145.807,620.677,145.843,624.359,143.541,626.644z M135.857,618.942
			c-1.982,1.983-1.982,5.187,0,7.153c1.947,1.982,5.17,1.982,7.154,0c1.947-1.967,1.947-5.17-0.036-7.153
			C141.027,616.978,137.804,616.978,135.857,618.942z"/>
	</g>
	<g>
		<path fill="#333333" d="M183.415,586.79c-2.267,2.266-5.985,2.266-8.251,0c-2.303-2.284-2.267-5.985,0-8.252
			c2.266-2.284,5.949-2.284,8.251,0C185.68,580.805,185.68,584.506,183.415,586.79z M175.731,579.086
			c-1.984,1.984-1.984,5.189-0.036,7.154c1.982,1.966,5.205,1.966,7.152,0c1.984-1.965,1.984-5.17,0-7.154
			C180.9,577.122,177.677,577.122,175.731,579.086z"/>
	</g>
	<g>
		<path fill="#333333" d="M206.644,511.063c-2.266,2.284-5.984,2.284-8.251,0s-2.267-5.968,0-8.251c2.302-2.285,5.985-2.285,8.251,0
			C208.911,505.096,208.946,508.779,206.644,511.063z M198.96,503.359c-1.984,1.984-1.984,5.189-0.036,7.154
			c1.983,1.982,5.204,1.982,7.188,0c1.948-1.965,1.948-5.17-0.036-7.154C204.128,501.395,200.908,501.395,198.96,503.359z"/>
	</g>
	<g>
		<path fill="#333333" d="M105.961,612.905c-2.266,2.266-5.985,2.266-8.251,0c-2.284-2.284-2.266-5.985,0-8.251
			c2.284-2.284,5.967-2.284,8.251,0C108.228,606.92,108.246,610.621,105.961,612.905z M98.276,605.203
			c-1.981,1.982-1.981,5.188-0.016,7.152c1.982,1.967,5.188,1.967,7.152,0c1.965-1.965,1.965-5.17,0-7.152
			C103.447,603.237,100.242,603.237,98.276,605.203z"/>
	</g>
	<g>
		<path fill="#333333" d="M124.385,689.428c-2.266,2.266-5.985,2.266-8.251,0c-2.266-2.284-2.266-5.985,0-8.25
			c2.302-2.285,5.985-2.285,8.251,0C126.651,683.442,126.685,687.144,124.385,689.428z M116.699,681.726
			c-1.982,1.967-1.982,5.17,0,7.137c1.947,1.982,5.169,1.982,7.154,0c1.947-1.967,1.947-5.17-0.036-7.137
			C121.869,679.761,118.646,679.761,116.699,681.726z"/>
	</g>
	<g>
		<path fill="#333333" d="M207.918,610.69c-2.267,2.286-5.985,2.286-8.251,0c-2.267-2.266-2.267-5.965,0-8.249
			c2.302-2.267,5.984-2.267,8.251,0C210.185,604.726,210.22,608.425,207.918,610.69z M200.235,602.989
			c-1.984,1.984-1.984,5.188,0,7.153c1.946,1.982,5.169,1.982,7.151,0c1.949-1.965,1.949-5.169-0.035-7.153
			C205.404,601.024,202.181,601.024,200.235,602.989z"/>
	</g>
	<g>
		<path fill="#333333" d="M233.378,564.816c-2.302,2.284-5.984,2.284-8.286,0c-2.267-2.267-2.267-5.968,0.035-8.25
			c2.267-2.267,5.949-2.267,8.216,0C235.645,558.849,235.645,562.55,233.378,564.816z M225.66,557.132
			c-1.984,1.967-1.984,5.17,0,7.137c1.982,1.982,5.169,1.982,7.152,0c1.983-1.967,1.983-5.17,0-7.137
			C230.829,555.168,227.642,555.168,225.66,557.132z"/>
	</g>
	<g>
		<path fill="#333333" d="M248.997,588.063c-2.267,2.284-5.985,2.284-8.252,0c-2.302-2.284-2.266-5.967,0-8.251
			c2.267-2.284,5.95-2.284,8.252,0C251.262,582.097,251.262,585.779,248.997,588.063z M241.311,580.362
			c-1.982,1.982-1.982,5.188-0.036,7.153c1.982,1.965,5.205,1.965,7.154,0c1.982-1.966,1.982-5.171,0-7.153
			C246.48,578.396,243.257,578.396,241.311,580.362z"/>
	</g>
	<g>
		<path fill="#333333" d="M181.29,632.664c-2.267,2.284-5.983,2.284-8.25,0c-2.267-2.266-2.267-5.967,0-8.251
			c2.3-2.267,5.983-2.267,8.25,0C183.555,626.697,183.591,630.398,181.29,632.664z M173.605,624.963
			c-1.982,1.982-1.982,5.188,0,7.152c1.947,1.983,5.17,1.983,7.154,0c1.946-1.965,1.946-5.17-0.036-7.152
			C178.775,622.996,175.552,622.996,173.605,624.963z"/>
	</g>
	<g>
		<path fill="#333333" d="M146.02,687.693c-2.266,2.284-5.985,2.284-8.251,0c-2.267-2.284-2.267-5.968,0-8.252
			c2.302-2.283,5.985-2.283,8.251,0C148.286,681.726,148.321,685.409,146.02,687.693z M138.335,679.991
			c-1.984,1.982-1.984,5.188,0,7.152c1.949,1.982,5.171,1.982,7.152,0c1.949-1.965,1.949-5.17-0.036-7.152
			C143.507,678.025,140.284,678.025,138.335,679.991z"/>
	</g>
	<g>
		<path fill="#333333" d="M216.275,667.65c-2.266,2.284-5.983,2.284-8.25,0c-2.302-2.284-2.266-5.968,0-8.252
			c2.267-2.283,5.95-2.283,8.25,0C218.542,661.683,218.542,665.366,216.275,667.65z M208.591,659.948
			c-1.982,1.982-1.982,5.188-0.036,7.152c1.983,1.984,5.206,1.984,7.189,0c1.947-1.965,1.947-5.17-0.035-7.152
			C213.761,657.983,210.539,657.983,208.591,659.948z"/>
	</g>
	<g>
		<path fill="#333333" d="M272.12,611.294c-2.303,2.284-5.985,2.284-8.287,0c-2.267-2.267-2.267-5.968,0.035-8.251
			c2.267-2.267,5.949-2.267,8.216,0C274.385,605.326,274.385,609.027,272.12,611.294z M264.4,603.592
			c-1.984,1.982-1.984,5.188,0,7.152c1.982,1.982,5.169,1.982,7.152,0c1.983-1.965,1.983-5.17,0-7.152
			C269.569,601.626,266.382,601.626,264.4,603.592z"/>
	</g>
	<g>
		<path fill="#333333" d="M268.613,567.225c-2.267,2.284-5.983,2.284-8.25,0c-2.266-2.266-2.266-5.967,0-8.251
			c2.301-2.267,5.983-2.267,8.25,0C270.879,561.258,270.915,564.959,268.613,567.225z M260.929,559.523
			c-1.982,1.982-1.982,5.188,0,7.152c1.946,1.982,5.169,1.982,7.153,0c1.947-1.965,1.947-5.17-0.035-7.152
			C266.098,557.557,262.875,557.557,260.929,559.523z"/>
	</g>
	<g>
		<path fill="#333333" d="M123.889,596.067c-2.302,2.284-5.985,2.284-8.287,0c-2.267-2.267-2.267-5.968,0.036-8.252
			c2.266-2.266,5.949-2.266,8.215,0C126.155,590.1,126.155,593.801,123.889,596.067z M116.169,588.382
			c-1.984,1.966-1.984,5.171,0,7.136c1.982,1.984,5.168,1.984,7.152,0c1.984-1.965,1.984-5.17,0-7.136
			C121.337,586.417,118.152,586.417,116.169,588.382z"/>
	</g>
	<g>
		<path fill="#333333" d="M52.278,311.628c-2.266,2.284-5.983,2.284-8.25,0c-2.286-2.284-2.268-5.976,0-8.251
			c2.283-2.284,5.966-2.284,8.25,0C54.544,305.652,54.562,309.344,52.278,311.628z M44.594,303.926
			c-1.982,1.982-1.982,5.188-0.018,7.152c1.983,1.975,5.188,1.975,7.152,0c1.966-1.965,1.966-5.17,0-7.152
			C49.764,301.96,46.559,301.96,44.594,303.926z"/>
	</g>
	<g>
		<path fill="#333333" d="M168.257,340.275c-2.267,2.266-5.985,2.266-8.251,0c-2.267-2.284-2.267-5.984,0-8.251
			c2.302-2.284,5.984-2.284,8.251,0C170.524,334.291,170.559,337.991,168.257,340.275z M160.574,332.574
			c-1.983,1.965-1.983,5.188-0.036,7.134c1.984,1.983,5.207,1.983,7.188,0c1.948-1.946,1.948-5.169-0.034-7.134
			C165.745,330.607,162.522,330.607,160.574,332.574z"/>
	</g>
	<g>
		<path fill="#333333" d="M112.379,396.561c-2.276,2.284-5.993,2.284-8.259,0c-2.284-2.284-2.266-5.965,0.018-8.251
			c2.266-2.282,5.949-2.282,8.241,0C114.646,390.596,114.646,394.276,112.379,396.561z M104.686,388.859
			c-1.982,1.982-1.982,5.188-0.016,7.153c1.982,1.982,5.188,1.982,7.143,0c1.984-1.966,1.984-5.171,0-7.153
			C109.857,386.895,106.652,386.895,104.686,388.859z"/>
	</g>
	<g>
		<path fill="#333333" d="M66.707,406.564c-2.282,2.302-5.983,2.302-8.267,0c-2.267-2.267-2.267-5.947,0.018-8.25
			c2.284-2.266,5.967-2.266,8.233,0C68.974,400.617,68.993,404.298,66.707,406.564z M59.007,398.881
			c-1.984,1.982-1.984,5.169-0.02,7.153c1.984,1.965,5.188,1.965,7.171,0c1.965-1.984,1.965-5.171-0.018-7.153
			C64.175,396.898,60.972,396.898,59.007,398.881z"/>
	</g>
	<g>
		<path fill="#333333" d="M20.426,419.207c-2.266,2.266-5.985,2.266-8.251,0c-2.282-2.303-2.266-5.985,0.02-8.252
			c2.266-2.301,5.948-2.301,8.232,0C22.692,413.222,22.71,416.904,20.426,419.207z M12.742,411.487
			c-1.984,1.982-1.984,5.205-0.018,7.152c1.982,1.983,5.188,1.983,7.154,0c1.964-1.947,1.964-5.17,0-7.152
			C17.912,409.539,14.707,409.539,12.742,411.487z"/>
	</g>
	<g>
		<path fill="#333333" d="M106.174,480.892c-2.284,2.284-5.985,2.284-8.268,0c-2.286-2.282-2.266-5.966,0.016-8.249
			c2.266-2.285,5.949-2.285,8.233,0C108.44,474.926,108.44,478.609,106.174,480.892z M98.472,473.189
			c-1.983,1.983-1.983,5.189-0.018,7.154c1.982,1.982,5.188,1.982,7.172,0c1.964-1.965,1.964-5.171-0.02-7.154
			C103.642,471.226,100.437,471.226,98.472,473.189z"/>
	</g>
	<g>
		<path fill="#333333" d="M127.004,518.144c-2.266,2.286-5.985,2.286-8.251,0c-2.302-2.266-2.267-5.965,0-8.249
			c2.266-2.267,5.949-2.267,8.251,0C129.271,512.179,129.271,515.878,127.004,518.144z M119.321,510.443
			c-1.984,1.983-1.984,5.188-0.036,7.152c1.983,1.982,5.206,1.982,7.152,0c1.984-1.965,1.984-5.169,0-7.152
			C124.49,508.478,121.268,508.478,119.321,510.443z"/>
	</g>
	<g>
		<path fill="#333333" d="M-56.238,508.779c-2.286,2.284-5.969,2.284-8.251,0.018c-2.286-2.284-2.266-5.984,0-8.27
			c2.283-2.266,5.983-2.283,8.268,0C-53.956,502.813-53.956,506.513-56.238,508.779z M-63.941,501.094
			c-1.964,1.967-1.964,5.171,0,7.153c1.965,1.967,5.171,1.967,7.152-0.018c1.984-1.965,1.984-5.169,0-7.152
			C-58.754,499.111-61.957,499.111-63.941,501.094z"/>
	</g>
	<g>
		<path fill="#333333" d="M-14.772,495.358c-2.284,2.284-5.985,2.284-8.251,0.018c-2.284-2.284-2.284-5.985,0-8.269
			c2.284-2.267,5.985-2.285,8.251,0C-12.488,489.391-12.488,493.092-14.772,495.358z M-22.474,487.674
			c-1.965,1.965-1.965,5.17,0,7.152c1.964,1.965,5.169,1.965,7.152-0.018c1.984-1.965,1.984-5.17,0-7.154
			C-17.287,485.689-20.492,485.689-22.474,487.674z"/>
	</g>
	<g>
		<path fill="#333333" d="M42.487,552.44c-2.284,2.284-5.983,2.284-8.269,0c-2.283-2.283-2.266-5.967,0.02-8.251
			c2.266-2.284,5.965-2.284,8.25-0.018C44.753,546.456,44.753,550.157,42.487,552.44z M34.785,544.739
			c-1.984,1.982-1.984,5.188-0.018,7.152c1.983,1.983,5.188,1.983,7.17,0c1.967-1.982,1.967-5.188,0-7.152
			C39.973,542.772,36.768,542.772,34.785,544.739z"/>
	</g>
	<g>
		<path fill="#333333" d="M67.965,540.437c-2.284,2.283-5.985,2.283-8.268,0c-2.286-2.285-2.266-5.967,0.016-8.251
			c2.266-2.284,5.967-2.284,8.251-0.018C70.231,534.452,70.231,538.151,67.965,540.437z M60.263,532.733
			c-1.982,1.984-1.982,5.188-0.018,7.154c1.982,1.982,5.188,1.982,7.171,0c1.965-1.983,1.965-5.188,0-7.17
			C65.451,530.751,62.246,530.751,60.263,532.733z"/>
	</g>
</g>
</svg>
